<?xml version="1.0" standalone="no"?>
<!DOCTYPE svg PUBLIC "-//W3C//DTD SVG 1.1//EN" "http://www.w3.org/Graphics/SVG/1.1/DTD/svg11.dtd" >
<svg xmlns="http://www.w3.org/2000/svg">
<metadata>
This is a custom SVG webfont generated by Font Squirrel.
Copyright   : Copyright c Jos Buivenga 2004 All rights reserved
</metadata>
<defs>
<font id="webfont0mC6asXV" horiz-adv-x="1124" >
<font-face units-per-em="2048" ascent="1638" descent="-410" />
<missing-glyph horiz-adv-x="552" />
<glyph unicode=" "  horiz-adv-x="552" />
<glyph unicode="&#x09;" horiz-adv-x="552" />
<glyph unicode="&#xa0;" horiz-adv-x="552" />
<glyph unicode="!" horiz-adv-x="567" d="M35 84q0 45 32.5 77t77.5 32t77 -32t32 -77t-32 -78t-77 -33q-47 0 -78.5 32t-31.5 79zM162 324l121 987q14 111 -23 143l10 47q76 45 140 45q53 0 84.5 -11t42 -38t9.5 -56.5t-15.5 -78.5t-32 -93t-40 -111.5t-38.5 -123.5l-201 -723z" />
<glyph unicode="&#x22;" horiz-adv-x="786" d="M14 1118q57 43 98.5 122t58.5 146.5t46 117.5t68 50h106l-55 -165q-35 -106 -109.5 -191.5t-169.5 -85.5q-37 0 -43 6zM342 1118q57 43 98 122t58.5 146.5t46 117.5t67.5 50h107l-55 -165q-35 -106 -110 -191.5t-169 -85.5q-37 0 -43 6z" />
<glyph unicode="#" horiz-adv-x="1441" d="M35 395l41 131q-2 -2 73.5 -4t225.5 -4l78 266h-269q-29 0 -37 -2l39 131q0 -4 301 -8q66 242 78 305q8 43 8 127q57 39 97 39q23 0 36 -10t14 -33.5t-1 -44t-8 -55.5q-10 -47 -97 -328h271q57 211 78 305q8 43 8 127q57 39 96 39q23 0 36 -10t14 -33.5t-1 -44t-8 -55.5 q-10 -47 -96 -328h98q262 0 287 17q-18 -49 -49 -80t-80 -43.5t-83 -14.5t-98 -2h-20h-94l-80 -264h104q264 0 289 17q-14 -43 -45 -72t-53.5 -42t-77.5 -19.5t-72 -6.5h-84h-98q-63 -207 -104 -379l-146 -30q90 281 127 409h-274q-63 -207 -105 -379l-145 -30 q96 303 127 411h-264q-29 0 -37 -2zM496 518h274l80 264h-272z" />
<glyph unicode="$" horiz-adv-x="937" d="M61 137q0 49 41 90q4 -45 76 -81.5t166 -36.5h6l96 483q-68 51 -95 74.5t-74.5 72.5t-67 99.5t-19.5 109.5q0 143 114 275.5t290 150.5q4 29 10 77l8 65q51 10 60 10q41 0 41 -43q0 -25 -21 -107q111 -6 182.5 -50t71.5 -116q0 -49 -37 -108q0 55 -70.5 95t-174.5 46 q-16 -86 -97 -450q63 -43 102.5 -74t86.5 -79t70.5 -104.5t23.5 -119.5q0 -162 -123 -284t-307 -150l-35 -199h-100q20 106 39 190q-123 2 -193 50t-70 114zM365 1038q0 -102 127 -194q10 53 28.5 138t30.5 150l20 107q-176 -27 -204 -172q-2 -9 -2 -29zM442 119 q168 41 195 186q4 25 4 35q0 92 -121 195q-21 -103 -78 -416z" />
<glyph unicode="%" horiz-adv-x="1605" d="M119 928q0 -115 59.5 -174.5t157.5 -59.5q180 0 308 134.5t128 314.5q0 115 -61.5 175t-163.5 60q-178 0 -303 -128.5t-125 -321.5zM246 0l712 1027q184 273 189 323q39 31 82 30q61 0 61 -41q0 -18 -12 -44.5t-26 -46.5l-33 -47q-20 -28 -25 -32q-4 -6 -185 -263 l-370 -530q-188 -273 -248 -376h-145zM264 963q0 147 62.5 239t154.5 92q72 0 111 -49t39 -137q0 -143 -69.5 -237.5t-160.5 -94.5q-137 1 -137 187zM819 211q0 -115 59.5 -174.5t157.5 -59.5q180 0 308.5 134.5t128.5 314.5q0 115 -61.5 175.5t-164.5 60.5 q-178 0 -303 -129t-125 -322zM965 246q0 147 62.5 239.5t154.5 92.5q72 0 110.5 -49.5t38.5 -137.5q0 -143 -69.5 -237.5t-159.5 -94.5q-137 1 -137 187z" />
<glyph unicode="&#x26;" horiz-adv-x="1384" d="M102 375q0 -174 119 -288t293 -114q268 0 457.5 172t222.5 441q20 158 35 202q186 100 186 302q0 12 -4 40q-61 -113 -125 -155q-51 -35 -160.5 -75t-158.5 -64q-78 -41 -133.5 -116t-55.5 -153q0 -31 8 -55q23 74 93.5 135.5t134.5 61.5q82 0 82 -109q0 -145 -81 -259 t-183.5 -166t-194.5 -52q-154 0 -234.5 90t-80.5 225t76.5 262t209.5 183l-4 26q-57 66 -57 195t75.5 232.5t196.5 103.5q176 0 176 -144q0 -4 -1 -11t-1 -11q25 -14 60 -14q49 0 88 35.5t39 88.5q0 78 -101.5 120t-212.5 42q-201 0 -356.5 -116.5t-155.5 -301.5 q0 -68 34 -133t89 -108q-162 -63 -268.5 -193.5t-106.5 -318.5z" />
<glyph unicode="'" horiz-adv-x="425" d="M16 1118q57 43 98.5 122t58.5 146.5t46 117.5t68 50h106l-55 -165q-35 -106 -109.5 -191.5t-169.5 -85.5q-37 0 -43 6z" />
<glyph unicode="(" horiz-adv-x="651" d="M145 160q0 -289 86 -484.5t232 -195.5q-14 0 -47 76.5t-66 235.5t-33 335q0 211 48.5 416t117 350t144 260t131 171t76.5 56q-174 0 -337 -190.5t-257.5 -473t-94.5 -556.5z" />
<glyph unicode=")" horiz-adv-x="651" d="M-229 -520q10 0 65 65.5t134 192.5t154 282.5t127 366.5t52 416q0 102 -13.5 198.5t-33.5 163t-43 116.5t-42 74.5t-32 24.5q160 0 249 -171t89 -435q0 -272 -110.5 -578.5t-277 -511t-318.5 -204.5z" />
<glyph unicode="*" horiz-adv-x="823" d="M4 1112q8 49 33.5 80t72 42t80 14t97.5 3h14l-4 6q-121 221 -158 238q33 12 60 12q33 0 60.5 -14t54 -45t42 -53.5t41.5 -67.5l9 -22q4 16 8 22q127 205 127 250v4q59 -47 59 -113q0 -59 -76 -194l-14 -25q-2 -4 -6 -6h61q223 0 246 17q-14 -86 -76.5 -113t-169.5 -27 h-59l8 -12l30 -51l29 -49l25 -41l23 -38q8 -13 18 -27.5t17.5 -22t13.5 -9.5q-35 -12 -62 -12q-35 0 -63.5 13.5t-55 48t-41 57t-42.5 76.5l-9 24l-10 -24q-121 -209 -121 -240v-4q-59 47 -59 115q0 66 82 204q-39 2 -111 2q-149 0 -174 -18z" />
<glyph unicode="+" horiz-adv-x="964" d="M113 457v131q0 -8 299 -8v26q0 260 -17 283q47 10 66 10q16 0 28.5 -4t21.5 -9t14 -16.5l8.5 -19.5t4.5 -25.5t1 -26.5v-32v-31q0 -4 -1 -57t-1 -98h43q262 0 284 16q-6 -43 -30.5 -71.5t-45 -42t-73.5 -19.5t-70 -6h-84h-26q-2 -98 -3 -281q0 -29 3 -37h-132q8 0 9 318 q-49 0 -109.5 1t-104.5 1h-48q-29 0 -37 -2z" />
<glyph unicode="," horiz-adv-x="428" d="M-47 -254q104 92 144 145.5t40 118.5q0 57 -47 58q-2 8 -2 20q0 49 37 77t88 28q37 0 66.5 -32t29.5 -81q0 -82 -85 -187.5t-244 -195.5z" />
<glyph unicode="-" horiz-adv-x="618" d="M45 436l27 131q0 -2 17 -4t57 -3t68 -1h77q262 0 287 16q-16 -49 -47 -79.5t-81.5 -43t-84 -14.5t-97.5 -2h-20q-27 0 -90.5 1t-75.5 1q-29 0 -37 -2z" />
<glyph unicode="." horiz-adv-x="432" d="M94 84q0 45 33 77t78 32t76.5 -32t31.5 -77t-31.5 -78t-76.5 -33t-78 32t-33 79z" />
<glyph unicode="/" horiz-adv-x="729" d="M-12 -500q246 729 398.5 1243t152.5 598q8 14 54 32t87 18q43 0 43 -54q0 -25 -9 -56.5t-22.5 -69t-15.5 -42.5l-41 -129l-92 -278l-115 -355l-120 -376l-99 -321q-45 -148 -59 -210h-162z" />
<glyph unicode="0" horiz-adv-x="1142" d="M82 371q0 -201 90 -300.5t234 -99.5q281 0 468 250t187 586q0 197 -90 297t-244 100q-272 0 -458.5 -243.5t-186.5 -589.5zM270 451q0 248 106.5 437t252.5 189q111 0 175 -99t64 -265q0 -254 -120.5 -442.5t-258.5 -192.5q-104 0 -161.5 101.5t-57.5 271.5z" />
<glyph unicode="1" horiz-adv-x="634" d="M117 1057l368 151h29l35 -86q-31 -123 -37 -157l-147 -811q-14 -70 -15 -154h-196l2 8l168 864q25 104 -11 140l-166 -54z" />
<glyph unicode="2" horiz-adv-x="897" d="M14 0h555q109 0 150 47t41 105q0 2 -1 6t-1 6q-23 -18 -56.5 -21.5t-183.5 -3.5h-305l33 23q35 23 92 65l125 98q68 54 136.5 125.5t124.5 145.5t91 159t35 163q0 119 -71.5 201.5t-229.5 82.5q-139 0 -240.5 -56t-101.5 -142q0 -33 21.5 -50.5t54 -17.5t69.5 20 q0 55 49.5 100.5t112.5 45.5q72 0 103.5 -60.5t31.5 -146.5q0 -285 -416 -645q-111 -98 -202 -160z" />
<glyph unicode="3" horiz-adv-x="880" d="M-90 -80q33 -4 51 -4q72 0 142.5 11.5t146.5 43t133 80.5t95 130t38 184q0 61 -17.5 103t-52 63.5t-63.5 30.5t-74 18l35 55q115 49 183.5 139t68.5 189q0 59 -32 99t-103 40q-63 0 -108.5 -39t-53.5 -105q-37 -23 -74 -22q-31 0 -51 18.5t-20 46.5q0 84 100 143.5 t231 59.5q160 0 235 -67.5t75 -161.5q0 -190 -308 -334q244 -39 244 -256q0 -141 -69.5 -253t-181 -175t-235.5 -95t-247 -32q-88 0 -88 90z" />
<glyph unicode="4" horiz-adv-x="962" d="M20 233q100 201 376 557.5t378 417.5h121l-21 -86q-31 -123 -34 -157q-57 -281 -119 -623q78 0 109.5 1t60.5 6t41 18q0 -29 -5 -52.5t-22.5 -51t-58.5 -44t-103 -16.5h-47q-37 -199 -39 -217q-14 -70 -14 -154h-197l3 8l69 363h-477zM215 342h332l98 506q12 55 43 156 q-74 -70 -230.5 -286t-242.5 -376z" />
<glyph unicode="5" horiz-adv-x="897" d="M-25 -80q29 -4 50 -4q84 0 163.5 24.5t152.5 78t117 149.5t44 225q0 84 -28 145.5t-70 92.5t-81.5 45t-76.5 14l-64 -6l-12 33l109 434l36 27h301q150 0 185 3t57 21q0 -164 -188 -164h-310l-53 -247q68 0 135.5 -19.5t131 -59.5t102.5 -117t39 -177q0 -150 -61.5 -267.5 t-160 -185t-210 -101.5t-224.5 -34q-84 0 -84 90z" />
<glyph unicode="6" horiz-adv-x="1052" d="M80 418q0 -217 90 -331t244 -114q231 0 369.5 174.5t138.5 411.5q0 143 -77 216t-194 73q-88 0 -180 -41t-154 -107q59 258 196.5 399.5t291.5 141.5q66 0 135.5 -29.5t95.5 -76.5q16 35 17 71q0 76 -84 119t-172 43q-117 0 -241 -64.5t-231.5 -180t-176 -302 t-68.5 -403.5zM279 395q0 113 24 240q123 104 227 104q193 0 193 -221q0 -197 -78 -318.5t-188 -121.5q-178 0 -178 317z" />
<glyph unicode="7" horiz-adv-x="817" d="M-86 -137q18 -16 45 -24.5t62.5 -7.5t74.5 32t74 88l723 1192l-27 35h-475q-193 0 -213 10q-10 4 -16 14q-12 -31 -15.5 -59.5t11 -64.5t76 -58.5t165.5 -22.5q94 0 156.5 7.5t79.5 13.5l16 6l-563 -944q-68 -119 -104.5 -162t-69.5 -55z" />
<glyph unicode="8" horiz-adv-x="958" d="M49 252q0 88 37 168t92 135t110.5 91t100.5 50q-162 152 -162 310q0 168 122 265t310 97q131 0 209 -66.5t78 -171.5q0 -70 -29.5 -130t-85 -107t-87 -67.5t-82.5 -49.5q-10 -6 -15 -8q109 -102 169.5 -189t60.5 -184q0 -197 -151 -310.5t-351 -113.5q-131 0 -228.5 71 t-97.5 210zM203 293q0 -94 49 -152.5t139 -58.5q117 0 196 79t79 171q0 80 -55.5 150.5t-164.5 162.5q-35 -16 -67.5 -38.5t-76.5 -64.5t-71.5 -107.5t-27.5 -141.5zM424 1067q0 -109 166 -252q6 4 34.5 21.5t45 29t44 36t42 51t27 66.5t12.5 87q0 72 -40 116t-122 44 q-84 0 -138.5 -44t-68.5 -126q-2 -11 -2 -29z" />
<glyph unicode="9" horiz-adv-x="1052" d="M0 -29q0 -76 84 -118.5t172 -42.5q117 0 241 64.5t231.5 180t176 302t68.5 403.5q0 188 -74 316t-233 128q-252 0 -393.5 -171t-141.5 -415q0 -143 77 -215.5t193 -72.5q88 0 180.5 41t153.5 106q-59 -258 -196.5 -399t-290.5 -141q-66 0 -135.5 29.5t-96.5 76.5 q-16 -35 -16 -72zM330 659q0 197 77.5 319t188.5 122q176 0 176 -303q0 -129 -22 -254q-123 -104 -228 -105q-192 0 -192 221z" />
<glyph unicode=":" horiz-adv-x="528" d="M100 84q0 45 33 77t78 32t76.5 -32t31.5 -77t-31.5 -78t-76.5 -33q-47 0 -79 32t-32 79zM217 676q0 45 33 76.5t78 31.5t76.5 -31.5t31.5 -76.5t-31.5 -78t-76.5 -33t-78 33t-33 78z" />
<glyph unicode=";" horiz-adv-x="528" d="M-39 -254q104 92 144 145.5t40 118.5q0 57 -47 58q-2 8 -2 20q0 49 37 77t88 28q37 0 66.5 -32t29.5 -81q0 -82 -85 -187.5t-244 -195.5zM217 676q0 45 33 76.5t78 31.5t76.5 -31.5t31.5 -76.5t-31.5 -78t-76.5 -33t-78 33t-33 78z" />
<glyph unicode="&#x3c;" horiz-adv-x="755" d="M80 506q29 -27 45 -45l272 -322q37 -43 104.5 -65.5t127.5 -22.5h30q-20 8 -42.5 26.5t-34.5 33.5l-11 14l-231 313q-14 16 -31.5 32.5t-29.5 25.5l-11 10q43 29 68 63l227 303q55 70 96 84h-30q-59 0 -130 -23.5t-110 -66.5l-268 -319z" />
<glyph unicode="=" horiz-adv-x="983" d="M113 293v131q0 -8 467 -8q262 0 284 16q-6 -43 -30.5 -71.5t-45 -42t-73.5 -19.5t-70 -6h-84q-27 0 -213 1t-198 1q-29 0 -37 -2zM113 600v131q0 -8 467 -8q262 0 284 16q-6 -43 -30.5 -71.5t-45 -42t-73.5 -19.5t-70 -6h-84q-27 0 -213 1t-198 1q-29 0 -37 -2z" />
<glyph unicode="&#x3e;" horiz-adv-x="755" d="M82 51q20 8 42.5 26.5t35.5 33.5l10 14l231 313q14 16 32 32.5t30 25.5l10 10q-43 29 -67 63l-228 303q-55 70 -96 84h31q59 0 129.5 -23.5t109.5 -66.5l271 -319l39 -41q-29 -27 -46 -45l-272 -322q-37 -43 -104.5 -65.5t-126.5 -22.5h-31z" />
<glyph unicode="?" horiz-adv-x="841" d="M72 84q0 45 32.5 77t77.5 32t77 -32t32 -77t-32 -78t-77 -33q-47 0 -78.5 32t-31.5 79zM117 463q0 20 2 31q16 90 79.5 178t140.5 158l150 141q74 70 124.5 150.5t50.5 162.5q0 156 -177 156q-61 0 -115.5 -45t-54.5 -125q0 -6 1 -17.5t1 -17.5q-37 -43 -96 -43 q-47 0 -68.5 24.5t-21.5 59.5q0 121 117 195.5t264 74.5q152 0 234.5 -85t82.5 -222q0 -102 -60 -203.5t-147 -181.5l-174 -154q-87 -74 -147.5 -151.5t-60.5 -145.5q0 -43 30 -69l-45 -23q-110 58 -110 152z" />
<glyph unicode="@" horiz-adv-x="1847" d="M94 350q0 266 132 497.5t350.5 366t463.5 134.5q309 0 500 -189.5t191 -482.5q0 -176 -52.5 -321.5t-133.5 -230.5t-172 -131t-179 -46h2q-123 0 -170 53t-47 143q0 47 16 103q-45 -100 -129 -186.5t-174 -86.5q-104 0 -164.5 99.5t-60.5 236.5q0 305 191.5 519 t463.5 214q96 0 195 -30q-35 -94 -91.5 -376t-74.5 -474q0 -61 19.5 -90t74.5 -29q119 0 236.5 159.5t117.5 432.5q0 250 -172 423t-426 173q-313 0 -533 -250t-220 -610q0 -254 129 -426t348 -213q14 -4 49 -4q57 0 80 12q-43 -121 -199 -121q-236 0 -398.5 222t-162.5 509 zM655 346q0 -225 125 -225q49 0 107.5 62.5t101.5 133.5l135 627q-12 2 -34 2q-180 0 -307.5 -166t-127.5 -434z" />
<glyph unicode="A" d="M-111 0l678 1221q23 47 49.5 79.5t58.5 49t52.5 23.5t55 13.5l44.5 8.5q0 -74 15 -174l151 -1057q6 -82 37 -164h-231q2 10 0 34.5t-2 35.5q0 4 -12 84l-23 167q-12 87 -23 150h-456l-238 -444q-4 -8 -10 -27h-146zM338 569h391l-34 234l-35 241q-13 92 -19 109z" />
<glyph unicode="B" horiz-adv-x="1075" d="M94 0l29 139l180 946q14 80 14 127.5t-24 100.5l20 35l357 10h20q158 0 238 -75t80 -181q0 -193 -254 -332q96 -31 158.5 -105.5t62.5 -185.5q0 -225 -160 -352t-403 -127h-318zM319 98h130q92 0 160.5 32t104.5 84t53 107.5t17 114.5q0 123 -73.5 190.5t-196.5 71.5 l-84 4q-72 -354 -111 -604zM451 797h106q66 0 131 -13q139 109 139 283q0 84 -51 132q-49 46 -126 46h-7l-98 -2q-47 -208 -94 -446z" />
<glyph unicode="C" horiz-adv-x="1257" d="M111 489q0 393 227 638t555 245q127 0 231.5 -50t126.5 -120q-8 -37 -59 -101.5t-102 -84.5l-29 26q2 6 2 19q0 63 -55.5 125.5t-163.5 62.5q-162 0 -282 -109.5t-174 -264t-54 -322.5q0 -195 86 -317.5t260 -122.5q98 0 214 52t183 146q2 -4 2 -18q0 -137 -158.5 -228.5 t-355.5 -91.5q-225 0 -339.5 142.5t-114.5 373.5z" />
<glyph unicode="D" horiz-adv-x="1337" d="M84 0q8 31 15 66l12 53l2 20l176 930q18 102 18 141q0 63 -24 103l22 35l457 10q217 0 359.5 -134t142.5 -376q0 -362 -224.5 -605t-529.5 -243h-426zM313 109h242q106 0 216 81.5t187.5 238.5t77.5 343q0 205 -104.5 338t-269.5 133h-15l-115 -4q0 -2 -96 -484 t-123 -646z" />
<glyph unicode="E" horiz-adv-x="1003" d="M84 0l27 139l180 946q8 39 11 71t4 51.5t-2 40t-5 27.5t-8 21.5t-6 16.5l18 35h301l346 6q19 -29 19 -79q0 -21 -3 -45q-11 -83 -34 -104h-39q0 47 -53.5 79t-134.5 34l-170 6q-55 -221 -109 -500h315q27 0 46.5 6.5t25.5 14.5l6 6q2 -16 -2 -41q-8 -41 -28.5 -65.5 t-56.5 -33.5t-57.5 -11.5t-60.5 -2.5q-2 0 -50 1.5t-88 1.5h-77q-53 -281 -84 -480v-12h381q29 0 49.5 7t26.5 14l6 6q0 -16 -4 -41q-8 -41 -29.5 -66.5t-56.5 -35t-57.5 -11.5t-59.5 -2h-487z" />
<glyph unicode="F" horiz-adv-x="962" d="M84 0l27 139l180 946q8 39 11 71t4 51.5t-2 40t-5 27.5t-8 21.5t-6 16.5l18 35h303l346 6q17 -29 18 -80q0 -21 -3 -45q-10 -84 -33 -103h-39q0 47 -53.5 79t-134.5 34l-172 6q-55 -221 -109 -500h315q27 0 46.5 6.5t25.5 14.5l6 6q2 -16 -2 -41q-8 -41 -28.5 -65.5 t-56.5 -33.5t-57.5 -11.5t-60.5 -2.5q-2 0 -50 1.5t-88 1.5h-77q-53 -281 -84 -480q-2 -2 -5 -26.5t-6 -58t-1 -56.5h-219z" />
<glyph unicode="G" horiz-adv-x="1308" d="M111 498q0 389 227 631.5t555 242.5h2q127 0 231.5 -50t126.5 -120q-8 -37 -59 -101.5t-102 -84.5l-29 26q2 6 2 19q0 63 -55.5 125.5t-165.5 62.5q-203 0 -356.5 -186t-153.5 -510q0 -215 98 -333t242 -118q29 0 77 8.5t80 16.5l33 6l31 158q14 78 14 125q0 39 -22 100 l18 35q68 27 144 27q63 0 110 -25q-6 -29 -25 -109l-32 -133q-12 -53 -27.5 -130t-23.5 -138q-25 -2 -203 -36t-313 -34q-186 0 -305 143.5t-119 381.5z" />
<glyph unicode="H" horiz-adv-x="1474" d="M115 0q12 47 211 1087q14 80 14 127q0 49 -23 99l19 35q70 27 145 26q61 0 109 -24q-47 -195 -137 -615h677l30 156l24 125l16 86q8 43 11 68.5t3 43.5q0 45 -24 99l20 35q66 27 142 26q63 0 110 -24q-133 -600 -172 -809q-84 -416 -84 -521l2 -20h-215q0 25 1 39t4 31.5 t12 57.5l19 93l34 164q23 111 47 244h-676l-16 -88q-84 -455 -84 -516l2 -25h-221z" />
<glyph unicode="I" horiz-adv-x="618" d="M100 0q18 80 213 1090q14 80 15 127q0 45 -25 98l21 35q68 27 145 26q61 0 109 -24q-111 -475 -175 -811q-84 -438 -84 -521q0 -6 1.5 -12t1.5 -8h-222z" />
<glyph unicode="J" horiz-adv-x="649" d="M-379 -274q0 45 33 77.5t82 32.5q18 0 41 -6q0 -84 88 -84q113 0 177 92t101 289q174 928 179 963q14 100 14 127q0 45 -25 98l23 35q66 27 141 26q63 0 111 -24q-111 -475 -174 -811q-14 -82 -78 -420q-49 -240 -219 -374t-355 -134q-68 0 -103.5 33t-35.5 80z" />
<glyph unicode="K" d="M76 0q29 121 213 1090q14 66 14 127q0 45 -24 98l20 35q68 27 143 26q61 0 109 -24q-80 -342 -141 -639l503 467q66 59 66 112q0 6 -4 23l20 35q59 23 140 22q92 0 108 -20l-39 -52q-16 -20 -46 -51l-50 -50l-78 -71l-101 -89l-149 -128l-192 -168q393 -727 424 -743 h-258q-57 137 -152.5 323.5t-165.5 288.5l-33 58l-24 -129q-84 -438 -84 -521q0 -4 1 -11t1 -9h-221z" />
<glyph unicode="L" horiz-adv-x="860" d="M82 0q8 35 213 1090q12 74 12 124t-4 61t-18 40l18 35q70 27 146 26q61 0 108 -24q-131 -590 -172 -811q-57 -285 -78 -428h232q86 0 149.5 30.5t81.5 77.5h37q7 -11 7 -32q0 -29 -13 -76q-23 -82 -60 -113h-659z" />
<glyph unicode="M" horiz-adv-x="1763" d="M70 0l10 33q172 702 274 1204q-20 66 -39 78l21 35q76 27 133 26q80 0 117 -30q8 -143 92 -557t131 -588l616 1075q8 12 17.5 22.5t23 18.5l24.5 14t31.5 11.5l32 8.5t37 6t36.5 4t42 3t43 4q-29 -123 -72 -336q-80 -389 -159 -911q-10 -76 -11 -107v-14h-221l27 123 q49 244 151 833q2 12 8.5 61.5t10.5 61.5l-68 -133l-497 -815l-88 -174l-60 18q-63 14 -92 61.5t-31 94.5l-174 830q-4 23 -7 69.5t-3 48.5q-16 -125 -197 -973q-12 -66 -12 -98v-8h-147z" />
<glyph unicode="N" horiz-adv-x="1474" d="M82 0l6 33l139 731l66 330q10 62 10 110q0 69 -20 111l20 35q58 23 94 23q12 0 21 -3l614 -948q14 -20 26.5 -53t18.5 -56l4 -22q4 86 13 129l127 674q13 68 13 118q0 67 -24 103l21 35q39 25 104 24q59 0 86 -22q-129 -555 -207 -961q-45 -240 -63 -391h-111l-579 911 q-51 90 -58 127q0 -39 -10 -90l-35 -158q-25 -112 -34 -165q-88 -477 -99 -625h-143z" />
<glyph unicode="O" horiz-adv-x="1368" d="M98 485q0 -236 112 -374t277 -138q338 0 570.5 257t232.5 640q0 233 -114.5 367.5t-303.5 134.5q-152 0 -291 -63.5t-246.5 -176t-172 -281.5t-64.5 -366zM322 545q0 176 64.5 339t171 262t220.5 99q127 0 206 -124t79 -316q0 -272 -140.5 -490.5t-314.5 -218.5 q-131 0 -208.5 129.5t-77.5 319.5z" />
<glyph unicode="P" horiz-adv-x="1050" d="M78 0l8 33q31 127 121 612t90 569q0 68 -18 99l20 35l363 12q74 0 139 -16.5t125.5 -51.5t96.5 -103.5t36 -160.5q0 -236 -167 -376t-407 -140q-51 0 -104 12q-76 -424 -82 -524h-221zM401 633q35 -18 123 -19q145 0 245.5 106.5t100.5 274.5q0 129 -70.5 189.5 t-166.5 60.5l-109 -4q-18 -68 -62.5 -278.5t-60.5 -329.5z" />
<glyph unicode="Q" horiz-adv-x="1366" d="M98 485q0 197 64.5 366t172 281.5t247 176t290.5 63.5q188 0 304 -134t116 -368q0 -354 -201.5 -604t-506.5 -286q27 -12 55 -35q217 -168 455 -168q82 0 152.5 34.5t107.5 88.5q8 -37 8 -56q0 -100 -89 -165.5t-220 -65.5q-76 0 -172.5 50t-174 112.5t-169 127 t-150.5 85.5q-131 39 -210 168.5t-79 328.5zM322 545q0 -190 77.5 -319.5t208.5 -129.5q174 0 314.5 218t140.5 491q0 193 -79 316.5t-206 123.5q-115 0 -221 -99t-170.5 -262t-64.5 -339z" />
<glyph unicode="R" horiz-adv-x="1155" d="M66 0l6 33q211 1055 211 1181q0 68 -19 99l21 35q371 10 385 10q154 0 264 -80t110 -250q0 -180 -102 -304t-272 -179q25 -12 186.5 -269.5t181.5 -275.5h-258q-14 43 -38.5 93t-64.5 113l-66 102l-75 112l-65 92q-53 0 -104 12q-76 -424 -82 -524h-219zM387 633 q35 -18 123 -19q145 0 245.5 106.5t100.5 274.5q0 131 -70.5 190.5t-167.5 59.5l-108 -4q-18 -68 -62.5 -278.5t-60.5 -329.5z" />
<glyph unicode="S" horiz-adv-x="925" d="M4 162q0 41 39 86q4 -45 92 -88t180 -43q113 0 203 52t90 171q0 53 -32.5 105.5t-81.5 93.5l-107 90l-106 95q-49 46 -82 111.5t-33 137.5q0 168 124 286.5t322 118.5q82 0 155 -20.5t108.5 -45t35.5 -44.5q0 -51 -20.5 -112.5t-56.5 -92.5l-35 8q-12 98 -84 147.5 t-144 49.5q-82 0 -156.5 -54.5t-74.5 -150.5q0 -61 49 -120.5t119 -111t138.5 -108.5t117.5 -138t49 -173q0 -195 -146.5 -317t-367.5 -122q-123 0 -209 56.5t-86 132.5z" />
<glyph unicode="T" horiz-adv-x="993" d="M68 1126h38q16 47 80 78t152 31h151q-4 -82 -20 -156q-92 -516 -199 -1046l-6 -33h219q0 61 6 90l77 406l100 508q45 227 45 231h153q88 0 142.5 -30.5t50.5 -78.5h37q20 23 31 98q3 20 3 39q0 52 -22 97l-279 -12h-407l-275 12q-53 -47 -71 -128q-11 -49 -11 -77 q0 -19 5 -29z" />
<glyph unicode="U" horiz-adv-x="1357" d="M139 301q0 49 11 127q55 356 114 662q14 80 15 127q0 49 -23 98l20 35q68 27 144 26q63 0 110 -24q-59 -254 -180 -897q-12 -61 -12 -109q0 -135 75.5 -186t176.5 -51q147 0 262 79.5t143 194.5q20 68 144 711q14 72 14 120q0 63 -25 101l23 35q35 25 104 24q59 0 86 -22 q-106 -446 -192 -908q-39 -205 -202 -339t-400 -134q-197 0 -302.5 74t-105.5 256z" />
<glyph unicode="V" horiz-adv-x="1216" d="M137 1313q8 -4 21.5 -23.5t34 -92.5t34.5 -179l144 -887q6 -129 116 -156l70 -18l88 174l567 944q96 156 125 273q-35 29 -98 28q-66 0 -129 -26l-20 -35q25 -33 24 -78q0 -68 -59 -172l-408 -713q-82 -143 -74 -151q-39 152 -102 569.5t-68 568.5q-29 37 -102 37 q-78 0 -143 -28z" />
<glyph unicode="W" horiz-adv-x="1785" d="M137 1313q8 -4 21.5 -23.5t34 -92.5t34.5 -179l113 -887q6 -131 117 -156l69 -18l88 174l312 561l71 -561q6 -131 117 -156l70 -18l90 174l530 944q90 154 125 273q-41 20 -112 20q-68 0 -115 -20l-21 -35q24 -33 24 -79q0 -17 -3 -36q-10 -57 -55 -133l-371 -713 q-18 -31 -36.5 -68.5t-27.5 -60.5l-10 -22q-33 135 -81 552.5t-52 585.5q-29 37 -104 37q-84 0 -150 -28l-20 -35q8 -4 21 -23.5t34.5 -92.5t34.5 -179l14 -121l-283 -545l-34 -68l-29 -61l-8 -22q-33 135 -82 551.5t-53 586.5q-29 37 -105 37q-82 0 -147 -28z" />
<glyph unicode="X" horiz-adv-x="1097" d="M-78 0l90 100l453 559l-123 361l-19 60q-11 36 -17.5 52.5t-14.5 41t-12.5 35l-11.5 26.5t-11 22.5l-10 16.5t-13.5 15t-14.5 11.5t-17 12.5l20 35q68 29 141 28q80 0 107 -37l15 -64q11 -48 18 -69l22 -73q16 -53 41 -125l64 -179l57 78l137 174q86 109 97 160 q4 16 3 30q0 25 -12 42l21 35q53 29 119 28q70 0 108 -28q-41 -111 -188 -281l-301 -354l207 -592q10 -31 27.5 -61.5t29.5 -45.5l12 -14h-256l-182 537q-51 -72 -78 -103l-264 -323q-18 -25 -35.5 -52.5t-24.5 -42.5l-8 -16h-176z" />
<glyph unicode="Y" horiz-adv-x="890" d="M61 1313l21 35q66 29 141 28q63 0 94 -37q25 -117 85.5 -309t95.5 -276l59 80l225 301q46 66 47 122q0 29 -12 56l21 35q68 29 118 28q49 0 101 -28q-8 -37 -64.5 -130.5t-105.5 -150.5l-324 -405q-33 -158 -59 -310q-47 -246 -53 -352h-220l7 33l69 350l43 233 q-14 16 -31 64l-116 344l-38 104l-27 80q-7 23 -19.5 48.5t-25 37t-32.5 19.5z" />
<glyph unicode="Z" horiz-adv-x="1241" d="M-51 0l2 41q49 45 65 63l865 1057l73 70h-452q-88 0 -152.5 -31t-81.5 -78h-37q-2 4 -2 27q0 49 19.5 112.5t60.5 102.5l275 -12h684l-2 -43q-47 -45 -64 -66l-856 -1044l-72 -66h506q88 0 152.5 31t81.5 78h39q4 -8 4 -27q0 -49 -20.5 -112.5t-63.5 -102.5h-1024z" />
<glyph unicode="[" horiz-adv-x="507" d="M-119 -319l352 1818h318l-21 -100h-190l-311 -1616h190l-22 -102h-316z" />
<glyph unicode="\" horiz-adv-x="729" d="M-10 1337q0 -25 9 -56.5t22.5 -69t15.5 -42.5l41 -129l92 -278l115 -355l119 -376l100 -321q45 -148 59 -210h162q-246 729 -398.5 1243t-152.5 598q-8 14 -54 32t-87 18q-43 -1 -43 -54z" />
<glyph unicode="]" horiz-adv-x="509" d="M-41 -319l18 102h189l317 1616h-190l18 100h318l-355 -1818h-315z" />
<glyph unicode="^" horiz-adv-x="1277" d="M145 655l435 795h114l434 -795h-143l-348 629l-348 -629h-144z" />
<glyph unicode="_" horiz-adv-x="921" d="M0 -154h983l-61 -122h-922v122z" />
<glyph unicode="`" horiz-adv-x="692" d="M186 1483l54 -140q72 -186 235 -186q23 0 51.5 13.5t30.5 19.5q-59 20 -95 70.5t-47.5 98.5t-38 86t-71.5 38h-119z" />
<glyph unicode="a" horiz-adv-x="1038" d="M82 299q0 299 164 521t397 222q41 0 154.5 -19t158.5 -22l-51 -256l-78 -397q-14 -111 -14 -153q0 -96 78 -97l49 8l14 -36q-119 -96 -215 -97q-55 0 -83.5 31t-31.5 79q-1 14 -1 28q0 33 5 63q7 43 19 80q-66 -121 -165 -201t-187 -80t-150.5 85t-62.5 241zM270 322 q0 -102 37 -151.5t92 -49.5q92 0 244 192q98 416 109 594q-88 25 -160 25q-125 0 -223.5 -185t-98.5 -425z" />
<glyph unicode="b" horiz-adv-x="1067" d="M121 156q0 55 98 559t103 559q4 41 4 67q0 115 -64 117l8 37q76 51 170 51q55 0 79 -23.5t24 -74.5q-2 -72 -49.5 -281t-100.5 -393q80 121 189.5 194.5t208.5 73.5q205 0 204 -350q0 -119 -37.5 -242.5t-106.5 -231t-181.5 -176.5t-247.5 -69q-133 0 -217 46.5 t-84 136.5zM319 215q0 -63 31 -96t115 -33q92 0 160.5 55.5t106.5 145.5t56.5 186t18.5 195q0 238 -123 237q-57 0 -144 -62.5t-153 -148.5q-29 -166 -61 -389q-7 -49 -7 -90z" />
<glyph unicode="c" horiz-adv-x="944" d="M82 373q0 254 156.5 459.5t373.5 205.5q123 0 212 -42t89 -119q0 -66 -58 -103q-28 -17 -56 -17q-31 0 -64 21q0 145 -147 146q-129 0 -221.5 -161t-92.5 -343q0 -127 59.5 -209t176.5 -82q174 0 326 180v-11q0 -124 -128 -222q-134 -102 -296 -103q-139 0 -234.5 109 t-95.5 291z" />
<glyph unicode="d" horiz-adv-x="1062" d="M72 324q0 162 60.5 320.5t193.5 276t309 117.5q104 0 170 -30l47 266q9 27 9 59q0 26 -6 57q-13 67 -62 68l8 37q76 51 170 51q57 0 82 -28q21 -25 21 -59q0 -6 -1 -11q-4 -41 -10 -88q-4 -23 -53 -249t-56 -263q-104 -547 -104 -647q0 -102 72 -103q20 0 53 8l14 -36 q-131 -96 -221 -97q-119 0 -119 166q0 25 4 66v8q-78 -111 -175 -175.5t-187 -64.5q-102 0 -160.5 88.5t-58.5 262.5zM260 342q0 -231 117 -231q55 0 142 59t153 141q10 55 31.5 157.5t23.5 119.5l59 319q-53 25 -172 25q-125 0 -208.5 -100.5t-114.5 -227.5t-31 -262z" />
<glyph unicode="e" horiz-adv-x="940" d="M84 379q6 270 167 464.5t353 194.5q135 0 203 -58q66 -57 66 -153q0 -162 -167 -259q-165 -95 -391 -95h-41q-4 -33 -4 -61q0 -108 57 -194q58 -89 167 -89q86 0 176 48t159 132q0 -6 1 -11q0 -124 -129 -222q-134 -102 -295 -103q-141 0 -232.5 110t-89.5 296zM285 547 q78 6 136 18.5t121.5 40t98.5 80.5q37 57 37 136q0 39 -22 69q-24 33 -81 33q-104 0 -185.5 -120t-104.5 -257z" />
<glyph unicode="f" horiz-adv-x="655" d="M117 0h198q0 63 4 86q90 563 142 801q6 0 71.5 -1t79.5 -1q170 0 174 145l-4 -2q-2 -2 -7 -5l-12 -7q-7 -4 -20.5 -6t-29.5 -2h-240q8 16 12 47q29 205 80 284.5t137 79.5q41 0 65 -22.5t24 -55.5q29 -12 57 -12q39 2 64.5 26.5t25.5 65.5q0 57 -48 91t-120 34 q-55 0 -111.5 -20.5t-117 -64.5t-113.5 -131t-86 -204q-31 -115 -129 -122l-20 -62q68 -31 67 -135q0 -47 -10 -94l-125 -662q-4 -16 -8 -51z" />
<glyph unicode="g" horiz-adv-x="1003" d="M-74 -315q0 43 28 88t93 45q57 0 78 -43q-23 -45 -23 -80q0 -61 62.5 -93t157.5 -32q96 0 159.5 30.5t91 85t36.5 102.5t9 112q0 41 -7 110.5t-7 124.5q0 27 4 39q-45 -90 -133 -145.5t-170 -55.5q-113 0 -167 90.5t-54 239.5q4 162 67.5 328t185.5 286.5t267 120.5 q41 0 167 -17t169 -20l-51 -256q-2 -14 -9.5 -46.5t-25.5 -124.5l-45 -226q-14 -111 -14 -153l14 -281q0 -113 -46 -199t-122 -135t-165 -73.5t-183 -24.5q-156 0 -261.5 54.5t-105.5 148.5zM276 332q0 -211 117 -211q119 0 211 98q100 432 117 682q-68 27 -139 27 q-76 0 -149 -99.5t-114 -237.5t-43 -259z" />
<glyph unicode="h" horiz-adv-x="1099" d="M82 0l4 31l162 858q76 420 76 454q0 106 -68 115l10 37q76 51 172 51q53 0 75 -22.5t22 -69.5q0 -43 -24 -149l-60 -265q-37 -158 -58 -270q70 98 189.5 185t238.5 87q72 0 124 -52t52 -144q0 -45 -67.5 -386t-65.5 -460h-194q0 12 14 98q86 440 107 598q4 45 4 64 q0 121 -93 121q-84 0 -175 -60.5t-148 -138.5q-96 -541 -100 -662v-20h-197z" />
<glyph unicode="i" horiz-adv-x="542" d="M92 0l2 8q150 785 150 822q0 69 -56 69q-10 0 -16 -2l-18 33q35 41 96 72.5t121 31.5q76 0 76 -87q0 -35 -23 -128q-23 -92 -23 -94q-8 -37 -22 -128l-37 -226l-37 -217q-12 -63 -12 -117q0 -25 -2 -37h-199zM328.5 1387.5q31.5 31.5 77.5 31.5q43 0 73.5 -31.5 t30.5 -74.5q-2 -43 -34 -77t-75 -34t-74 34q-30 32 -30 72q0 48 31.5 79.5z" />
<glyph unicode="j" horiz-adv-x="542" d="M-229 -453q35 -57 92 -57q94 0 230 147.5t169 327.5l139 737q6 35 19.5 91.5t19.5 90.5t6 58q0 49 -19 70.5t-73 21.5q-49 0 -110.5 -35.5t-89.5 -68.5l18 -33q6 2 16 2q53 0 54 -68q4 -16 -156 -860q-29 -147 -125 -284.5t-190 -139.5zM303 1313q0 43 32 74.5t77 31.5 q43 0 73.5 -31.5t30.5 -74.5t-33.5 -77t-74.5 -34q-45 0 -75 33t-30 78z" />
<glyph unicode="k" horiz-adv-x="1003" d="M82 0l6 31l234 1243q8 39 8 74q0 100 -68 110l8 37q76 51 170 51q55 0 79 -24.5t24 -75.5q0 -16 -40 -209l-83 -400l-49 -239q197 45 300 116.5t103 133.5q0 51 -80 51q-10 0 -16 -2l-19 33q33 41 95.5 72.5t122.5 31.5q74 0 73 -73q0 -248 -409 -369q29 -14 65.5 -96 t70.5 -169t95.5 -158t136.5 -71q29 0 62 8l14 -36q-37 -31 -104.5 -64t-118.5 -33q-74 0 -136.5 77t-98 172t-80 199.5t-80.5 141.5q-27 -131 -47.5 -264t-29.5 -207t-9 -92h-199z" />
<glyph unicode="l" horiz-adv-x="520" d="M82 0l4 31l236 1243q8 43 7 76q0 99 -69 108l10 37q76 51 170 51q49 0 74 -18q26 -19 26 -77q0 -45 -10 -89q-10 -49 -34 -148q-49 -209 -117 -574.5t-94 -553.5q-4 -23 -4 -86h-199z" />
<glyph unicode="m" horiz-adv-x="1697" d="M82 0v8l147 770q3 16 3 32q0 26 -8 50q-13 39 -46 39q-10 0 -16 -2l-19 33q33 41 95.5 72.5t121.5 31.5q76 0 76 -96q0 -57 -33 -168q70 98 189 185t237 87q76 0 129 -58q46 -51 47 -136q0 -13 -1 -27q-2 -10 -7 -47q72 98 189 183t233 85q76 0 129 -58q46 -51 46 -136 q0 -13 -1 -27q-2 -23 -66.5 -364.5t-64.5 -456.5h-194q0 12 14 98q90 465 107 598q4 34 3 61q0 49 -12 79q-18 45 -77 45q-82 0 -172.5 -58.5t-149.5 -134.5l-25.5 -129t-29.5 -160l-25 -144q-14 -85 -21.5 -148.5t-7.5 -106.5h-194q0 12 14 98q90 465 107 598q4 34 3 61 q0 49 -11 79q-18 45 -78 45q-84 0 -176.5 -60.5t-149.5 -138.5l-94 -528q-10 -63 -12 -117v-37h-199z" />
<glyph unicode="n" horiz-adv-x="1107" d="M82 0v8l147 770q3 16 3 32q0 26 -8 50q-13 39 -46 39q-10 0 -16 -2l-19 33q33 41 95.5 72.5t121.5 31.5q76 0 76 -96q0 -57 -33 -168q70 98 189 185t237 87q76 0 129 -58q46 -51 47 -136q0 -13 -1 -27q-2 -23 -67 -364.5t-65 -456.5h-194q0 12 14 98q90 465 107 598 q4 34 3 61q0 49 -11 79q-18 45 -78 45q-84 0 -176.5 -60.5t-149.5 -138.5l-94 -528q-10 -63 -12 -117v-37h-199z" />
<glyph unicode="o" horiz-adv-x="1030" d="M84 369q0 -68 10 -128.5t40 -125t95.5 -103.5t159.5 -39q233 0 393 203q164 208 164 480q0 178 -82 279q-84 103 -223 103q-229 0 -391 -191t-166 -478zM281 403q0 57 13 135t40.5 173.5t85 159t135.5 63.5q94 0 145 -89q47 -82 48 -217v-22q-2 -223 -90.5 -377.5 t-200.5 -154.5q-88 0 -134 90q-42 83 -43 215q1 12 1 24z" />
<glyph unicode="p" horiz-adv-x="1087" d="M-12 -492q61 297 88 457l155 826q2 10 2 28q0 37 -17 58.5t-42 21.5q-8 0 -14 -2l-19 33q10 12 29.5 29.5t73 46t100.5 28.5q80 0 80 -90q0 -14 -7 -49t-17 -74l-11 -47q70 102 179.5 185t211.5 83q213 0 213 -352q0 -164 -60.5 -323.5t-192.5 -276.5t-308 -117 q-70 0 -172 33l-34 -207q-22 -129 -32 -197.5t-10 -93.5h-196zM281 115h2q76 -29 172 -29q84 0 149.5 47t101 112.5t60.5 145.5t32 135.5t7 89.5q0 147 -24.5 218t-104.5 71q-59 0 -146.5 -70.5t-144.5 -138.5l-84 -471z" />
<glyph unicode="q" horiz-adv-x="1071" d="M82 324q0 119 38 242.5t106.5 231t181 176t247.5 68.5q98 0 213 -20.5t129 -22.5l-84 -420q-51 -261 -115.5 -625t-64.5 -452h-198l54 283l60 315q8 47 35 142q-80 -123 -183.5 -196t-199.5 -73q-102 0 -160.5 88.5t-58.5 262.5zM270 342q0 -231 117 -231 q57 0 147.5 63.5t155.5 147.5q14 78 34 172l29 141q9 47 20 117.5t22 154.5q-63 23 -183 23q-92 0 -161.5 -56.5t-107.5 -148.5t-55.5 -188.5t-17.5 -194.5z" />
<glyph unicode="r" horiz-adv-x="802" d="M82 0l139 698q12 59 12 119q0 82 -55 82q-4 0 -10 -2h-4l-19 33q29 37 92.5 70.5t110.5 33.5q90 0 90 -88q0 -37 -16 -90q-39 -88 -51 -166q14 37 46 90.5t80 114.5t116.5 104t138.5 43q59 0 86.5 -26.5t27.5 -67.5q0 -53 -39 -89t-92 -52q-16 72 -88 72 q-68 0 -127 -61.5t-98 -156t-62.5 -172t-35.5 -145.5q-43 -225 -43 -344h-199z" />
<glyph unicode="s" horiz-adv-x="808" d="M81 66q-39 46 -39 93q0 48 40 97q2 -57 81 -110.5t163 -53.5q80 0 134 40t54 126q0 43 -39 81t-93 69.5t-109.5 68.5t-94.5 97.5t-39 136.5q0 133 108.5 230t258.5 97q115 0 188.5 -45t73.5 -116q0 -45 -30.5 -80t-73.5 -35q-27 0 -56 22q6 27 6 54q0 102 -137 102 q-76 0 -127 -46t-51 -116q0 -49 41 -90t100.5 -73.5t118.5 -69.5t100 -95.5t41 -134.5q0 -162 -118.5 -252t-278.5 -90q-143 1 -222 93z" />
<glyph unicode="t" horiz-adv-x="763" d="M194 507q58 249 60 327q0 31 -6 43q-6 14 -14.5 24t-15.5 17.5t-14 12.5t-13.5 8t-11.5 5t-7 2h-2l23 62q96 0 223 170h96l-55 -170h241q27 0 45.5 6t22.5 12l6 6q0 -2 1 -7t1 -7q0 -61 -52 -98t-126 -37q-18 0 -66.5 2t-66.5 2q-23 0 -29 -2q0 -37 -54 -287t-56 -336 q0 -4 -1 -7q0 -116 128 -116q53 0 119.5 36t93.5 65v-19q-2 -104 -101.5 -176t-214.5 -72q-94 0 -155 53q-59 51 -60 144q1 79 61 337z" />
<glyph unicode="u" horiz-adv-x="1128" d="M119 166q0 39 47 275.5t59 336.5q2 8 2 27q0 94 -53 94q-10 0 -16 -2l-19 33q33 41 95.5 72.5t121.5 31.5q76 0 76 -96q0 -55 -26 -168q-14 -72 -44 -194.5t-43.5 -195.5t-13.5 -124q0 -127 105 -127q84 0 176 60.5t149 138.5q4 25 34 186.5t48 271.5v19q0 94 -51 94 q-10 0 -16 -2l-19 33q33 41 95.5 72.5t121.5 31.5q76 0 76 -96q0 -70 -29 -168l-100 -539q-4 -33 -4 -45q0 -88 80 -88q25 0 45 8l14 -36q-43 -37 -112.5 -67t-114.5 -30q-113 0 -113 121q0 68 29 146q-70 -98 -188.5 -185.5t-237.5 -87.5q-72 0 -123 52.5t-51 146.5z" />
<glyph unicode="v" horiz-adv-x="901" d="M37 934q104 100 196 100q51 0 73 -27.5t22 -97t82 -600.5q16 -92 32 -137q121 162 222.5 365.5t101.5 304.5q0 49 -22.5 89t-67.5 50q27 45 102 45q123 0 123 -129q0 -158 -162 -442q-78 -133 -237 -363l-80 -147l-57 18q-57 10 -82 55t-27 93l-80 587q-8 63 -22.5 107.5 t-28.5 62t-29.5 27.5t-25 6t-13.5 -2z" />
<glyph unicode="w" horiz-adv-x="1513" d="M37 934q104 100 196 100q51 0 73 -27.5t22 -97t82 -600.5q16 -92 32 -137q113 152 210.5 341t111.5 300q-32 88 -80 88q-7 0 -14 -2l-21 35q104 100 197 100q51 0 72.5 -27.5t21.5 -97t82 -600.5q16 -92 33 -137q121 162 222 365.5t101 304.5q0 49 -22.5 89t-67.5 50 q27 45 103 45q123 0 122 -129q0 -158 -161 -442q-78 -133 -238 -363l-80 -147l-57 18q-57 10 -82 55t-27 93l-63 469q-31 -63 -66 -125q-78 -133 -237 -363l-80 -147l-57 18q-57 10 -82 55t-27 93l-80 587q-8 63 -22.5 107.5t-28.5 62t-29.5 27.5t-25 6t-13.5 -2z" />
<glyph unicode="x" horiz-adv-x="960" d="M-76 0l465 481l-90 207l-39.5 89l-27 64.5t-18.5 36t-23.5 21.5t-32.5 4q-16 0 -27 -2l-20 33l24 23q23 22 33 29l32 22q22 14 43 20t43.5 6t39 -6t26.5 -12t21.5 -25.5t16.5 -33.5l20 -49l22 -58l82 -197l16 -49q233 199 234 311q0 57 -43 93q20 14 49 14q68 0 98.5 -36 t30.5 -79t-28.5 -92t-94 -111.5t-97.5 -89.5l-110 -90l183 -409l65 -115h-229l-23 76l-137 321q-10 -20 -33 -43l-254 -272l-61 -82h-156z" />
<glyph unicode="y" horiz-adv-x="921" d="M-240 -418q0 45 15 88q4 -25 43 -40t84 -15q182 0 432 358q-18 8 -29.5 19.5t-18.5 31t-10.5 28.5t-5.5 34l-4 25l-86 587q-25 203 -106 203l-13 -2l-20 35q41 41 98.5 70.5t104.5 29.5q51 0 72.5 -27.5t21.5 -97.5q-2 -72 82 -600q6 -55 45 -141q311 498 311 674 q0 49 -22.5 89t-67.5 50q27 45 102 45q123 0 123 -129q0 -158 -161 -442q-94 -164 -189.5 -312.5t-217.5 -318.5t-234.5 -271.5t-192.5 -101.5q-72 0 -114 36t-42 95z" />
<glyph unicode="z" horiz-adv-x="966" d="M-25 0h693q96 0 156 41q63 42 63 99q0 49 -35 93q-2 -16 -33 -41.5t-94 -49t-137 -23.5h-322q31 20 60 57l553 731q25 35 65 62l2 39h-639q-102 0 -143 -84q-15 -31 -15 -57q0 -30 21 -52q20 -22 56 -22q8 0 18 2q0 8 12 28.5t47 43t82 22.5h277l-7 -4q-4 -2 -10 -8.5 t-14 -13.5l-18.5 -17t-18.5 -23l-551 -723q-12 -16 -29.5 -31.5t-27.5 -23.5l-11 -6v-39z" />
<glyph unicode="{" horiz-adv-x="681" d="M96 -229q0 39 4 59q74 385 74 561q0 172 -78 187l8 45q156 0 273 600q33 164 140.5 245.5t223.5 81.5q72 0 115 -47q-117 -2 -207 -92t-112 -227q-31 -182 -87.5 -324.5t-107.5 -207t-88 -68.5q61 -80 61 -273q0 -117 -27.5 -320.5t-27.5 -244.5q0 -172 182 -172 q16 0 54 4q-82 -80 -191 -80q-92 0 -150.5 81t-58.5 192z" />
<glyph unicode="|" horiz-adv-x="163" d="M0 -520v2068h164v-2068h-164z" />
<glyph unicode="}" horiz-adv-x="681" d="M-111 -422q53 -80 155.5 -80t193 92.5t114.5 239.5q41 231 82 386t82 226.5t71.5 99t67.5 36.5l9 45q-94 0 -95 190q0 35 22.5 206t22.5 257q0 127 -64.5 200.5t-154.5 73.5q-72 0 -135 -47q190 -4 191 -211q0 -70 -18.5 -218t-18.5 -197q0 -131 24.5 -207t59.5 -86 q-8 -2 -20.5 -10.5t-50.5 -52.5t-73 -111.5t-80 -207t-79 -319.5q-12 -63 -19.5 -94t-27 -80t-44 -72.5t-66.5 -43t-99 -19.5q-13 0 -50 4z" />
<glyph unicode="~" horiz-adv-x="1079" d="M184 535q76 55 129 51q33 -2 125 -34t160 -36q98 -6 176 35t96 129q-84 -59 -151 -55q-35 4 -130 33.5t-147 33.5q-96 6 -169 -32.5t-89 -124.5z" />
<glyph unicode="&#xa1;" horiz-adv-x="540" d="M-15 -101.5q1 29.5 15 79t31.5 93.5t40 111.5l39.5 122.5l200 723l58 -12l-121 -987q-14 -111 22 -144l-10 -47q-76 -45 -139 -45q-53 0 -85 11.5t-42 38t-9 56zM276 1255q0 45 32 78t77 33t78 -31.5t33 -79.5q0 -45 -33 -76.5t-78 -31.5t-77 31.5t-32 76.5z" />
<glyph unicode="&#xa2;" horiz-adv-x="958" d="M82 369q0 279 162 464t389 203q6 35 14 99.5t12 87.5q45 10 60 10q41 0 41 -41q0 -10 -25 -123l-6 -33q106 -10 167.5 -53t61.5 -113q0 -25 -14 -67q-25 39 -93.5 67.5t-150.5 30.5l-129 -637l-26 -135q84 4 176 53t158 127q2 -8 2 -18q0 -104 -111 -191.5t-252 -115.5 l-33 -207h-100q29 147 41 196h-4q-145 0 -242.5 106t-97.5 290zM283 418q0 -109 43 -184.5t131 -98.5q137 672 153 762q-123 -16 -205.5 -117.5t-111.5 -251.5q-10 -44 -10 -110z" />
<glyph unicode="&#xa3;" d="M74 551l12 133q0 4 137 4q0 23 1 86.5t1 79.5t2 60t4 67t7.5 55.5t13.5 63.5q12 57 34.5 111.5t66.5 117t102.5 108.5t148.5 76.5t199 30.5q100 0 191 -50t91 -134q0 -68 -37.5 -102.5t-82.5 -34.5t-80 30q8 0 8 43q0 47 -51 89t-135 42q-111 0 -192 -97t-93 -230 q-8 -78 -19 -416q131 -4 154 -4q262 0 285 16q-6 -43 -31 -71.5t-45.5 -42t-73.5 -19.5t-69 -6h-84h-142q-4 -164 -46 -382t-85 -279q238 -45 404 -46q174 0 314 32t196 91q6 -27 6 -53q0 -219 -410 -219q-49 0 -104.5 4t-131 14.5l-130 18.5t-164 26.5t-168.5 26.5 q59 129 96 344t47 424h-90q-24 0 -57 -8z" />
<glyph unicode="&#xa4;" horiz-adv-x="1200" d="M-14 444l43 131q29 -4 106 -4q6 70 31 162h-94q-29 0 -37 -2l43 131q43 -6 131 -6q102 236 302 376t441 140q121 0 205 -44t84 -91q0 -57 -57 -98q-6 41 -79 75.5t-202 34.5q-174 0 -318.5 -112.5t-213.5 -282.5h385q260 0 284 16q-18 -49 -48.5 -79.5t-79 -43t-82 -14.5 t-97.5 -2h-20h-379q-20 -84 -23 -164h267q266 0 290 17q-18 -49 -49 -80t-81 -43t-85 -14.5t-98 -2.5h-20h-222q33 -354 392 -354q53 0 146 27.5t167 91.5q-25 -119 -129.5 -178.5t-270.5 -59.5q-231 0 -357 131t-130 344h-111q-26 0 -34 -2z" />
<glyph unicode="&#xa5;" horiz-adv-x="1030" d="M137 276l25 132q0 -8 248 -9l34 185q-98 2 -211 2q-29 0 -36 -2l24 131q0 -2 189 -6l-107 315l-38 104l-26 80q-7 23 -19.5 48.5t-25 37t-32.5 19.5l20 35q63 29 142 28q63 0 94 -37q25 -117 85 -309t95 -276l59 80l226 301q70 98 35 178l20 35q68 29 119 28 q49 0 100 -28q-8 -37 -64.5 -130.5t-105.5 -150.5l-289 -360q252 0 277 16q-14 -41 -45 -69.5t-56.5 -42t-80 -20.5t-75.5 -7h-83q-39 -115 -51 -185h14q293 0 317 17q-14 -43 -47.5 -72t-59.5 -42t-86 -19.5t-78 -6.5h-85q-33 -164 -37 -276h-192l6 33q8 47 49 243 q-98 2 -211 3q-29 -1 -37 -3z" />
<glyph unicode="&#xa7;" horiz-adv-x="972" d="M23 -311l8 37q51 -51 124.5 -83t141.5 -30h18q37 123 34 340t-60 590q-57 369 -33 571q23 174 136.5 294t264.5 120q150 0 227 -62.5t66 -122.5l-8 -36q-51 51 -125 82.5t-141 29.5h-21q-37 -119 -33.5 -340t62.5 -590q57 -369 33 -571q-23 -174 -136.5 -294t-265.5 -120 q-150 0 -224 62t-68 123zM366.5 991q-4.5 -8 8.5 -113l18 -156l27 -212q23 -164 31 -255t13 -217t-12.5 -223.5t-56.5 -183.5q178 61 207 320q0 82 4 90t-8 114l-18 155l-27 212q-29 217 -39 337t1 274.5t60 267.5q-176 -61 -204 -320q0 -82 -4.5 -90z" />
<glyph unicode="&#xa8;" horiz-adv-x="786" d="M106 1313q0 45 31 78.5t72 33.5t71.5 -33.5t30.5 -78.5q0 -47 -30.5 -80t-71.5 -33t-72 33t-31 80zM483 1313q0 45 31 78.5t72 33.5t71.5 -33.5t30.5 -78.5q0 -47 -30.5 -80t-71.5 -33t-72 33t-31 80z" />
<glyph unicode="&#xa9;" horiz-adv-x="1617" d="M113 627q0 324 206.5 532.5t540.5 208.5q283 0 464 -180t181 -461q0 -326 -201.5 -535.5t-527.5 -209.5q-291 0 -477 181t-186 464zM244 672q0 -250 164.5 -416t412.5 -166q229 0 393 169t164 421q0 256 -157.5 420t-403.5 164q-238 0 -405.5 -169t-167.5 -423zM473 651 q0 172 100.5 295t257.5 123q123 0 194 -55.5t54 -134.5q-8 8 -23.5 20t-73.5 32.5t-130 20.5q-86 0 -150 -63q-72 -72 -71 -197q0 -104 57 -179t164 -75q66 0 132.5 35t111.5 98q12 -37 12 -57q0 -82 -96.5 -142.5t-210.5 -60.5q-139 0 -233.5 85t-94.5 255z" />
<glyph unicode="&#xaa;" horiz-adv-x="858" />
<glyph unicode="&#xab;" horiz-adv-x="1302" d="M127 506l47 41l332 319q123 121 211 121q49 0 76 -31q-43 -14 -113 -84l-285 -303q-14 -16 -33.5 -31.5t-32 -23.5t-14.5 -8q2 0 11.5 -8.5t21.5 -23.5t21 -32l170 -303q41 -70 79 -84q-45 -29 -88 -28q-82 -4 -165 118l-205 320zM582 506l47 41l332 319q123 121 210 121 q49 0 76 -31q-43 -14 -112 -84l-285 -303q-14 -16 -33.5 -31.5t-32 -23.5t-14.5 -8q2 0 11.5 -8.5t21.5 -23.5t20 -32l170 -303q41 -70 80 -84q-45 -29 -88 -28q-82 -4 -166 118l-205 320z" />
<glyph unicode="&#xac;" horiz-adv-x="1095" />
<glyph unicode="&#xad;" horiz-adv-x="618" d="M45 436l27 131q0 -2 17 -4t57 -3t68 -1h77q262 0 287 16q-16 -49 -47 -79.5t-81.5 -43t-84 -14.5t-97.5 -2h-20q-27 0 -90.5 1t-75.5 1q-29 0 -37 -2z" />
<glyph unicode="&#xae;" horiz-adv-x="1617" d="M113 627q0 324 206.5 532.5t540.5 208.5q283 0 464 -180t181 -461q0 -326 -201.5 -535.5t-527.5 -209.5q-291 0 -477 181t-186 464zM244 672q0 -250 164.5 -416t412.5 -166q229 0 393 169t164 421q0 256 -157.5 420t-403.5 164q-238 0 -405.5 -169t-167.5 -423zM565 965 v43q78 41 142 41q47 0 63 -24t16 -69q0 -27 -6 -57q90 158 209 158q55 0 82 -28t27 -64q0 -72 -94 -99q-18 53 -68 54q-82 0 -120 -86t-38 -218q0 -98 18.5 -190t45.5 -133h-209q0 33 2 211t2 295q0 72 -17.5 112.5t-30 47t-24.5 6.5z" />
<glyph unicode="&#xaf;" horiz-adv-x="686" d="M86 1225l27 131q0 -2 17 -4t57 -3t68 -1h77q262 0 286 16q-16 -49 -46.5 -80t-81 -43t-84 -14t-97.5 -2h-20q-27 0 -90.5 1t-75.5 1q-29 0 -37 -2z" />
<glyph unicode="&#xb0;" horiz-adv-x="817" d="M55 1176q0 141 100.5 240.5t243.5 99.5q141 0 240.5 -99.5t99.5 -240.5q0 -143 -99 -244t-241 -101q-143 0 -243.5 101t-100.5 244zM172 1176q0 -92 66.5 -159t158.5 -67q96 0 161 65.5t65 160.5q0 96 -64.5 160.5t-161.5 64.5q-94 0 -159.5 -64.5t-65.5 -160.5z" />
<glyph unicode="&#xb1;" horiz-adv-x="915" />
<glyph unicode="&#xb2;" horiz-adv-x="897" d="M14 0h555q109 0 150 47t41 105q0 2 -1 6t-1 6q-23 -18 -56.5 -21.5t-183.5 -3.5h-305l33 23q35 23 92 65l125 98q68 54 136.5 125.5t124.5 145.5t91 159t35 163q0 119 -71.5 201.5t-229.5 82.5q-139 0 -240.5 -56t-101.5 -142q0 -33 21.5 -50.5t54 -17.5t69.5 20 q0 55 49.5 100.5t112.5 45.5q72 0 103.5 -60.5t31.5 -146.5q0 -285 -416 -645q-111 -98 -202 -160z" />
<glyph unicode="&#xb3;" horiz-adv-x="880" d="M-90 -80q33 -4 51 -4q72 0 142.5 11.5t146.5 43t133 80.5t95 130t38 184q0 61 -17.5 103t-52 63.5t-63.5 30.5t-74 18l35 55q115 49 183.5 139t68.5 189q0 59 -32 99t-103 40q-63 0 -108.5 -39t-53.5 -105q-37 -23 -74 -22q-31 0 -51 18.5t-20 46.5q0 84 100 143.5 t231 59.5q160 0 235 -67.5t75 -161.5q0 -190 -308 -334q244 -39 244 -256q0 -141 -69.5 -253t-181 -175t-235.5 -95t-247 -32q-88 0 -88 90z" />
<glyph unicode="&#xb4;" horiz-adv-x="692" d="M113 1190q68 20 123 70.5t84.5 98.5t71.5 86t87 38h123l-106 -140q-143 -186 -314 -186q-23 0 -46 12.5t-23 20.5z" />
<glyph unicode="&#xb5;" horiz-adv-x="1062" />
<glyph unicode="&#xb6;" horiz-adv-x="1288" d="M90 631q0 285 204 503t456 218h223q264 0 289 16q-41 -115 -175 -133q-6 -20 -14 -66q-281 -1358 -321 -1665h-101q293 1448 334 1725h-90q-6 -18 -14 -60q-281 -1358 -322 -1665h-100l42 205l44 220l33 169q12 61 22 86q-74 -23 -135 -22q-166 0 -270.5 137t-104.5 332z " />
<glyph unicode="&#xb7;" horiz-adv-x="528" d="M145 502q0 45 33 76.5t78 31.5t77 -31.5t32 -76.5t-32 -78t-77 -33q-47 0 -79 32t-32 79z" />
<glyph unicode="&#xb8;" horiz-adv-x="823" d="M129 -395q0 35 18 63q33 -43 138 -43q51 0 95 29t44 65q0 23 -23.5 39.5t-53.5 26.5t-53.5 30.5t-23.5 49.5q0 74 95 121l43 2q-25 -37 -25 -66q0 -18 42 -30.5t84 -39t42 -77.5q0 -98 -90 -177t-191 -79q-66 0 -103.5 22.5t-37.5 63.5z" />
<glyph unicode="&#xb9;" horiz-adv-x="526" />
<glyph unicode="&#xba;" horiz-adv-x="843" />
<glyph unicode="&#xbb;" horiz-adv-x="1316" d="M41 55q33 -29 76 -28q84 -4 211 118l331 320l50 41q-20 20 -35 41l-205 319q-76 121 -166 121q-45 0 -88 -31q16 -6 36.5 -27.5t31.5 -39.5l12 -17l170 -303q16 -35 55 -63q-49 -29 -82 -64l-284 -303q-70 -70 -113 -84zM496 55q33 -29 75 -28q84 -4 211 118l332 320 l49 41q-20 20 -35 41l-204 319q-76 121 -166 121q-45 0 -88 -31q16 -6 36.5 -27.5t30.5 -39.5l13 -17l170 -303q16 -35 55 -63q-49 -29 -82 -64l-285 -303q-69 -70 -112 -84z" />
<glyph unicode="&#xbc;" horiz-adv-x="1267" />
<glyph unicode="&#xbd;" horiz-adv-x="1267" />
<glyph unicode="&#xbe;" horiz-adv-x="2854" d="M1912 233q100 201 376 557.5t378 417.5h121l-21 -86q-31 -123 -34 -157q-57 -281 -119 -623q78 0 109.5 1t60.5 6t41 18q0 -29 -5 -52.5t-22.5 -51t-58.5 -44t-103 -16.5h-47q-37 -199 -39 -217q-14 -70 -14 -154h-197l3 8l69 363h-477zM2107 342h332l98 506 q12 55 43 156q-74 -70 -230.5 -286t-242.5 -376zM1006 0h-145l712 1027q184 273 189 323q39 31 82 30q61 0 61 -41q0 -18 -12.5 -44.5t-25.5 -46.5l-34 -47q-20 -28 -24 -32q-4 -6 -186 -263l-369 -530q-189 -274 -248 -376zM-90 -80q33 -4 51 -4q72 0 142.5 11.5t146.5 43 t133 80.5t95 130t38 184q0 61 -17.5 103t-52 63.5t-63.5 30.5t-74 18l35 55q115 49 183.5 139t68.5 189q0 59 -32 99t-103 40q-63 0 -108.5 -39t-53.5 -105q-37 -23 -74 -22q-31 0 -51 18.5t-20 46.5q0 84 100 143.5t231 59.5q160 0 235 -67.5t75 -161.5q0 -190 -308 -334 q244 -39 244 -256q0 -141 -69.5 -253t-181 -175t-235.5 -95t-247 -32q-88 0 -88 90z" />
<glyph unicode="&#xbf;" horiz-adv-x="849" d="M33 100q0 102 60.5 204t147.5 181l174 154q87 74 147.5 151.5t60.5 145.5q0 43 -31 70l45 22q111 -57 111 -151q0 -20 -3 -31q-16 -90 -79.5 -178t-140.5 -159l-150 -140q-74 -70 -124 -151t-50 -163q0 -156 176 -155q61 0 115.5 45t54.5 125q0 6 -1 17t-1 17 q37 43 96 43q47 0 68.5 -24.5t21.5 -59.5q0 -121 -116.5 -195.5t-264.5 -74.5q-152 0 -234.5 85t-82.5 222zM573 1255q0 45 32 78t77 33q47 0 79 -31.5t32 -79.5q0 -45 -33 -76.5t-78 -31.5t-77 31.5t-32 76.5z" />
<glyph unicode="&#xc0;" d="M-111 0l678 1221q23 47 49.5 79.5t58.5 49t52.5 23.5t55 13.5l44.5 8.5q0 -74 15 -174l151 -1057q6 -82 37 -164h-231q2 10 0 34.5t-2 35.5q0 4 -12 84l-23 167q-12 87 -23 150h-456l-238 -444q-4 -8 -10 -27h-146zM338 569h391l-34 234l-35 241q-13 92 -19 109z M420 1737l59 -99q49 -80 109.5 -119.5t159.5 -39.5q57 0 94 37q-59 20 -98 59t-53.5 73.5t-44.5 61.5t-75 27h-151z" />
<glyph unicode="&#xc1;" d="M-111 0l678 1221q23 47 49.5 79.5t58.5 49t52.5 23.5t55 13.5l44.5 8.5q0 -74 15 -174l151 -1057q6 -82 37 -164h-231q2 10 0 34.5t-2 35.5q0 4 -12 84l-23 167q-12 87 -23 150h-456l-238 -444q-4 -8 -10 -27h-146zM338 569h391l-34 234l-35 241q-13 92 -19 109z M647 1516q84 25 146 80l107 99q46 42 104 42h151l-100 -99q-82 -82 -156 -120.5t-174 -38.5q-55 0 -78 37z" />
<glyph unicode="&#xc2;" d="M-111 0l678 1221q23 47 49.5 79.5t58.5 49t52.5 23.5t55 13.5l44.5 8.5q0 -74 15 -174l151 -1057q6 -82 37 -164h-231q2 10 0 34.5t-2 35.5q0 4 -12 84l-23 167q-12 87 -23 150h-456l-238 -444q-4 -8 -10 -27h-146zM338 569h391l-34 234l-35 241q-13 92 -19 109z M365 1489q59 10 139 69.5t145.5 115t98.5 55.5h38h19q33 0 68.5 -35t64.5 -77t71 -81t85 -47q0 -4 -14.5 -10t-36 -11.5t-39.5 -5.5q-199 0 -242 191q-61 -94 -131 -142.5t-185 -48.5q-18 0 -37.5 5.5t-31.5 11.5t-12 10z" />
<glyph unicode="&#xc3;" d="M-111 0l678 1221q23 47 49.5 79.5t58.5 49t52.5 23.5t55 13.5l44.5 8.5q0 -74 15 -174l151 -1057q6 -82 37 -164h-231q2 10 0 34.5t-2 35.5q0 4 -12 84l-23 167q-12 87 -23 150h-456l-238 -444q-4 -8 -10 -27h-146zM336 1522q104 57 166 57q43 0 145.5 -39t204.5 -39 q115 0 211 46t137 134q-115 -59 -190 -59q-55 0 -164 33t-180 33q-262 0 -330 -166zM338 569h391l-34 234l-35 241q-13 92 -19 109z" />
<glyph unicode="&#xc4;" d="M-111 0l678 1221q23 47 49.5 79.5t58.5 49t52.5 23.5t55 13.5l44.5 8.5q0 -74 15 -174l151 -1057q6 -82 37 -164h-231q2 10 0 34.5t-2 35.5q0 4 -12 84l-23 167q-12 87 -23 150h-456l-238 -444q-4 -8 -10 -27h-146zM338 569h391l-34 234l-35 241q-13 92 -19 109z M432 1599q0 45 31 79t71.5 34t71.5 -33.5t31 -79.5q0 -47 -31 -79.5t-71.5 -32.5t-71.5 32.5t-31 79.5zM911 1599q0 45 31 79t72 34t71.5 -33.5t30.5 -79.5q0 -47 -30.5 -79.5t-71.5 -32.5t-72 32.5t-31 79.5z" />
<glyph unicode="&#xc5;" d="M-111 0l678 1221q23 47 49.5 79.5t58.5 49t52.5 23.5t55 13.5l44.5 8.5q0 -74 15 -174l151 -1057q6 -82 37 -164h-231q2 10 0 34.5t-2 35.5q0 4 -12 84l-23 167q-12 87 -23 150h-456l-238 -444q-4 -8 -10 -27h-146zM338 569h391l-34 234l-35 241q-13 92 -19 109z M621 1608q0 -76 50 -117t120 -41q80 0 136 52t56 134q0 61 -37 104.5t-92 53.5q-14 4 -43 4q-82 0 -136 -51t-54 -139zM705 1618q0 66 28.5 96.5t65.5 30.5q43 0 70.5 -29.5t27.5 -83.5q0 -66 -28.5 -97.5t-67.5 -31.5q-2 0 -8.5 1t-10.5 1q-33 6 -55 37t-22 76z" />
<glyph unicode="&#xc6;" horiz-adv-x="1527" d="M-111 0l811 1202q16 29 21 51q6 23 -12 64l22 35h397l347 6q27 -41 15.5 -124t-34.5 -104h-39q0 47 -53 79t-135 34l-170 6q0 -2 -4 -22l-105 -520h310q29 0 49 7t26 13l6 6q0 -16 -4 -41q-14 -70 -60 -91t-140 -21h-211q-37 -180 -80 -435v-16h379q29 0 48 7t25 14l7 6 q2 -16 -5 -41q-8 -41 -29.5 -66.5t-57 -35t-58 -11.5t-61.5 -2h-486q20 70 25 96l72 375h-353l-282 -430q-4 -6 -11.5 -22.5t-9.5 -18.5h-160zM418 569h305l100 521l33 161l-59 -108z" />
<glyph unicode="&#xc7;" horiz-adv-x="1277" d="M111 489q0 393 227 638t555 245q127 0 231.5 -50t126.5 -120q-8 -37 -59 -101.5t-102 -84.5l-29 26q2 6 2 19q0 63 -55.5 125.5t-163.5 62.5q-162 0 -282 -109.5t-174 -264t-54 -322.5q0 -195 86 -317.5t260 -122.5q98 0 214 52t183 146q2 -4 2 -18q0 -113 -110.5 -197 t-270.5 -110q-16 -29 -16 -64q0 -18 42 -30.5t84 -39t42 -77.5q0 -98 -90 -177t-191 -79q-66 0 -103.5 22.5t-37.5 63.5q0 35 18 63q33 -43 138 -43q51 0 95 29t44 65q0 23 -23.5 39.5t-53.5 26.5t-53.5 30.5t-23.5 49.5q0 66 72 110q0 2 2 2q-53 -4 -78 -4 q-225 0 -339.5 142.5t-114.5 373.5z" />
<glyph unicode="&#xc8;" horiz-adv-x="1003" d="M84 0l27 139l180 946q8 39 11 71t4 51.5t-2 40t-5 27.5t-8 21.5t-6 16.5l18 35h301l346 6q27 -41 15.5 -124t-33.5 -104h-39q0 47 -53.5 79t-134.5 34l-170 6q-55 -221 -109 -500h315q27 0 46.5 6.5t25.5 14.5l6 6q2 -16 -2 -41q-8 -41 -28.5 -65.5t-56.5 -33.5 t-57.5 -11.5t-60.5 -2.5q-2 0 -50 1.5t-88 1.5h-77q-53 -281 -84 -480v-12h381q29 0 49.5 7t26.5 14l6 6q0 -16 -4 -41q-8 -41 -29.5 -66.5t-56.5 -35t-57.5 -11.5t-59.5 -2h-487zM358 1737l60 -99q49 -80 109.5 -119.5t158.5 -39.5q57 0 94 37q-59 20 -98 59t-53.5 73.5 t-44 61.5t-74.5 27h-152z" />
<glyph unicode="&#xc9;" horiz-adv-x="1003" d="M84 0l27 139l180 946q8 39 11 71t4 51.5t-2 40t-5 27.5t-8 21.5t-6 16.5l18 35h301l346 6q27 -41 15.5 -124t-33.5 -104h-39q0 47 -53.5 79t-134.5 34l-170 6q-55 -221 -109 -500h315q27 0 46.5 6.5t25.5 14.5l6 6q2 -16 -2 -41q-8 -41 -28.5 -65.5t-56.5 -33.5 t-57.5 -11.5t-60.5 -2.5q-2 0 -50 1.5t-88 1.5h-77q-53 -281 -84 -480v-12h381q29 0 49.5 7t26.5 14l6 6q0 -16 -4 -41q-8 -41 -29.5 -66.5t-56.5 -35t-57.5 -11.5t-59.5 -2h-487zM436 1516q84 25 146 80l107 99q46 42 104 42h151l-100 -99q-84 -82 -157 -120.5t-173 -38.5 q-55 0 -78 37z" />
<glyph unicode="&#xca;" horiz-adv-x="1003" d="M84 0l27 139l180 946q8 39 11 71t4 51.5t-2 40t-5 27.5t-8 21.5t-6 16.5l18 35h301l346 6q27 -41 15.5 -124t-33.5 -104h-39q0 47 -53.5 79t-134.5 34l-170 6q-55 -221 -109 -500h315q27 0 46.5 6.5t25.5 14.5l6 6q2 -16 -2 -41q-8 -41 -28.5 -65.5t-56.5 -33.5 t-57.5 -11.5t-60.5 -2.5q-2 0 -50 1.5t-88 1.5h-77q-53 -281 -84 -480v-12h381q29 0 49.5 7t26.5 14l6 6q0 -16 -4 -41q-8 -41 -29.5 -66.5t-56.5 -35t-57.5 -11.5t-59.5 -2h-487zM276 1489q59 10 139.5 69.5t146 115t97.5 55.5h39h19q33 0 68.5 -35t64.5 -77t71 -81t85 -47 q0 -4 -14.5 -10t-36 -11.5t-40.5 -5.5q-199 0 -241 191q-61 -94 -131 -142.5t-185 -48.5q-18 0 -37.5 5.5t-32 11.5t-12.5 10z" />
<glyph unicode="&#xcb;" horiz-adv-x="1003" d="M84 0l27 139l180 946q8 39 11 71t4 51.5t-2 40t-5 27.5t-8 21.5t-6 16.5l18 35h301l346 6q27 -41 15.5 -124t-33.5 -104h-39q0 47 -53.5 79t-134.5 34l-170 6q-55 -221 -109 -500h315q27 0 46.5 6.5t25.5 14.5l6 6q2 -16 -2 -41q-8 -41 -28.5 -65.5t-56.5 -33.5 t-57.5 -11.5t-60.5 -2.5q-2 0 -50 1.5t-88 1.5h-77q-53 -281 -84 -480v-12h381q29 0 49.5 7t26.5 14l6 6q0 -16 -4 -41q-8 -41 -29.5 -66.5t-56.5 -35t-57.5 -11.5t-59.5 -2h-487zM322 1599q0 45 30.5 79t71.5 34t71.5 -33.5t30.5 -79.5q0 -47 -30.5 -79.5t-71.5 -32.5 t-71.5 32.5t-30.5 79.5zM801 1599q0 45 30.5 79t71.5 34t72 -33.5t31 -79.5q0 -47 -31 -79.5t-72 -32.5t-71.5 32.5t-30.5 79.5z" />
<glyph unicode="&#xcc;" horiz-adv-x="618" d="M100 0q18 80 213 1090q14 80 15 127q0 45 -25 98l21 35q68 27 145 26q61 0 109 -24q-111 -475 -175 -811q-84 -438 -84 -521q0 -6 1.5 -12t1.5 -8h-222zM176 1737l60 -99q49 -80 109.5 -119.5t158.5 -39.5q57 0 94 37q-59 20 -98 59t-53.5 73.5t-44 61.5t-74.5 27h-152z " />
<glyph unicode="&#xcd;" horiz-adv-x="618" d="M100 0q18 80 213 1090q14 80 15 127q0 45 -25 98l21 35q68 27 145 26q61 0 109 -24q-111 -475 -175 -811q-84 -438 -84 -521q0 -6 1.5 -12t1.5 -8h-222zM301 1516q84 25 145 80l108 99q46 42 103 42h152l-100 -99q-82 -82 -156 -120.5t-174 -38.5q-55 0 -78 37z" />
<glyph unicode="&#xce;" horiz-adv-x="618" d="M88 1489q59 10 139 69.5t145.5 115t98.5 55.5h39h18q33 0 69 -35t64.5 -77t70.5 -81t85 -47q0 -4 -14.5 -10t-36 -11.5t-39.5 -5.5q-199 0 -242 191q-61 -94 -130.5 -142.5t-184.5 -48.5q-18 0 -37.5 5.5t-32 11.5t-12.5 10zM100 0q18 80 213 1090q14 80 15 127 q0 45 -25 98l21 35q68 27 145 26q61 0 109 -24q-111 -475 -175 -811q-84 -438 -84 -521q0 -6 1.5 -12t1.5 -8h-222z" />
<glyph unicode="&#xcf;" horiz-adv-x="618" d="M100 0q18 80 213 1090q14 80 15 127q0 45 -25 98l21 35q68 27 145 26q61 0 109 -24q-111 -475 -175 -811q-84 -438 -84 -521q0 -6 1.5 -12t1.5 -8h-222zM162 1599q0 45 30.5 79t71.5 34t72 -33.5t31 -79.5q0 -47 -31 -79.5t-72 -32.5t-71.5 32.5t-30.5 79.5zM539 1599 q0 45 30.5 79t71.5 34t71.5 -33.5t30.5 -79.5q0 -47 -30.5 -79.5t-71.5 -32.5t-71.5 32.5t-30.5 79.5z" />
<glyph unicode="&#xd1;" horiz-adv-x="1474" d="M82 0l6 33l139 731l66 330q25 150 -10 221l20 35q78 31 115 20l614 -948q14 -20 26.5 -53t18.5 -56l4 -22q4 86 13 129l127 674q31 160 -11 221l21 35q39 25 104 24q59 0 86 -22q-129 -555 -207 -961q-45 -240 -63 -391h-111l-579 911q-51 90 -58 127q0 -39 -10 -90 l-35 -158q-25 -112 -34 -165q-88 -477 -99 -625h-143zM465 1522q104 57 166 57q43 0 145.5 -39t204.5 -39q115 0 211 46t137 134q-115 -59 -190 -59q-55 0 -164 33t-180 33q-262 0 -330 -166z" />
<glyph unicode="&#xd2;" horiz-adv-x="1368" d="M98 485q0 -236 112 -374t277 -138q338 0 570.5 257t232.5 640q0 233 -114.5 367.5t-303.5 134.5q-152 0 -291 -63.5t-246.5 -176t-172 -281.5t-64.5 -366zM322 545q0 176 64.5 339t171 262t220.5 99q127 0 206 -124t79 -316q0 -272 -140.5 -490.5t-314.5 -218.5 q-131 0 -208.5 129.5t-77.5 319.5zM569 1737l60 -99q49 -80 109.5 -119.5t158.5 -39.5q57 0 94 37q-59 20 -98 59t-53.5 73.5t-44 61.5t-74.5 27h-152z" />
<glyph unicode="&#xd3;" horiz-adv-x="1368" d="M98 485q0 -236 112 -374t277 -138q338 0 570.5 257t232.5 640q0 233 -114.5 367.5t-303.5 134.5q-152 0 -291 -63.5t-246.5 -176t-172 -281.5t-64.5 -366zM322 545q0 176 64.5 339t171 262t220.5 99q127 0 206 -124t79 -316q0 -272 -140.5 -490.5t-314.5 -218.5 q-131 0 -208.5 129.5t-77.5 319.5zM709 1516q84 25 145 80l108 99q46 42 103 42h152l-101 -99q-82 -82 -155.5 -120.5t-174.5 -38.5q-54 0 -77 37z" />
<glyph unicode="&#xd4;" horiz-adv-x="1368" d="M98 485q0 -236 112 -374t277 -138q338 0 570.5 257t232.5 640q0 233 -114.5 367.5t-303.5 134.5q-152 0 -291 -63.5t-246.5 -176t-172 -281.5t-64.5 -366zM322 545q0 176 64.5 339t171 262t220.5 99q127 0 206 -124t79 -316q0 -272 -140.5 -490.5t-314.5 -218.5 q-131 0 -208.5 129.5t-77.5 319.5zM487 1489q59 10 139.5 69.5t146 115t97.5 55.5h39h19q33 0 68.5 -35t64.5 -77t71 -81t85 -47q0 -4 -14.5 -10t-36 -11.5t-40.5 -5.5q-199 0 -241 191q-61 -94 -131 -142.5t-185 -48.5q-18 0 -37.5 5.5t-32 11.5t-12.5 10z" />
<glyph unicode="&#xd5;" horiz-adv-x="1368" d="M98 485q0 -236 112 -374t277 -138q338 0 570.5 257t232.5 640q0 233 -114.5 367.5t-303.5 134.5q-152 0 -291 -63.5t-246.5 -176t-172 -281.5t-64.5 -366zM322 545q0 176 64.5 339t171 262t220.5 99q127 0 206 -124t79 -316q0 -272 -140.5 -490.5t-314.5 -218.5 q-131 0 -208.5 129.5t-77.5 319.5zM422 1522q104 57 166 57q43 0 145.5 -39t204.5 -39q115 0 211 46t137 134q-115 -59 -190 -59q-55 0 -164 33t-180 33q-262 0 -330 -166z" />
<glyph unicode="&#xd6;" horiz-adv-x="1368" d="M98 485q0 -236 112 -374t277 -138q338 0 570.5 257t232.5 640q0 233 -114.5 367.5t-303.5 134.5q-152 0 -291 -63.5t-246.5 -176t-172 -281.5t-64.5 -366zM322 545q0 176 64.5 339t171 262t220.5 99q127 0 206 -124t79 -316q0 -272 -140.5 -490.5t-314.5 -218.5 q-131 0 -208.5 129.5t-77.5 319.5zM516 1599q0 45 31 79t71.5 34t71.5 -33.5t31 -79.5q0 -47 -31 -79.5t-71.5 -32.5t-71.5 32.5t-31 79.5zM995 1599q0 45 31 79t72 34t71.5 -33.5t30.5 -79.5q0 -47 -30.5 -79.5t-71.5 -32.5t-72 32.5t-31 79.5z" />
<glyph unicode="&#xd8;" horiz-adv-x="1368" d="M27 74l69 -72l15 14q12 14 43 45l59 62q119 -147 311 -148q172 0 318.5 77t242 203t147.5 280.5t52 314.5q0 166 -59 289q14 12 44 40l42 39q12 11 30.5 29.5t24.5 31.5t6 26q0 31 -63 67l-57 -66q-46 -54 -78 -87q-121 154 -322 153q-319 0 -535.5 -245.5t-216.5 -632.5 q0 -174 60 -289zM322 530q0 289 140 502t312 213q162 0 244 -182l-682 -684q-14 63 -14 151zM362 281l689 688q18 -74 18 -164q0 -285 -153.5 -496t-321.5 -211q-158 1 -232 183z" />
<glyph unicode="&#xd9;" horiz-adv-x="1357" d="M139 301q0 49 11 127q55 356 114 662q14 80 15 127q0 49 -23 98l20 35q68 27 144 26q63 0 110 -24q-59 -254 -180 -897q-12 -61 -12 -109q0 -135 75.5 -186t176.5 -51q147 0 262 79.5t143 194.5q20 68 144 711q14 72 14 120q0 63 -25 101l23 35q35 25 104 24q59 0 86 -22 q-106 -446 -192 -908q-39 -205 -202 -339t-400 -134q-197 0 -302.5 74t-105.5 256zM571 1737l60 -99q49 -80 109.5 -119.5t158.5 -39.5q57 0 94 37q-59 20 -98 59t-53.5 73.5t-44 61.5t-74.5 27h-152z" />
<glyph unicode="&#xda;" horiz-adv-x="1357" d="M139 301q0 49 11 127q55 356 114 662q14 80 15 127q0 49 -23 98l20 35q68 27 144 26q63 0 110 -24q-59 -254 -180 -897q-12 -61 -12 -109q0 -135 75.5 -186t176.5 -51q147 0 262 79.5t143 194.5q20 68 144 711q14 72 14 120q0 63 -25 101l23 35q35 25 104 24q59 0 86 -22 q-106 -446 -192 -908q-39 -205 -202 -339t-400 -134q-197 0 -302.5 74t-105.5 256zM674 1516q84 25 145 80l108 99q46 42 103 42h152l-101 -99q-82 -82 -155.5 -120.5t-173.5 -38.5q-55 0 -78 37z" />
<glyph unicode="&#xdb;" horiz-adv-x="1357" d="M139 301q0 49 11 127q55 356 114 662q14 80 15 127q0 49 -23 98l20 35q68 27 144 26q63 0 110 -24q-59 -254 -180 -897q-12 -61 -12 -109q0 -135 75.5 -186t176.5 -51q147 0 262 79.5t143 194.5q20 68 144 711q14 72 14 120q0 63 -25 101l23 35q35 25 104 24q59 0 86 -22 q-106 -446 -192 -908q-39 -205 -202 -339t-400 -134q-197 0 -302.5 74t-105.5 256zM471 1489q59 10 139 69.5t145.5 115t98.5 55.5h39h18q33 0 69 -35t64.5 -77t70.5 -81t85 -47q0 -4 -14.5 -10t-36 -11.5t-39.5 -5.5q-199 0 -242 191q-61 -94 -130.5 -142.5t-184.5 -48.5 q-18 0 -37.5 5.5t-32 11.5t-12.5 10z" />
<glyph unicode="&#xdc;" horiz-adv-x="1357" d="M139 301q0 49 11 127q55 356 114 662q14 80 15 127q0 49 -23 98l20 35q68 27 144 26q63 0 110 -24q-59 -254 -180 -897q-12 -61 -12 -109q0 -135 75.5 -186t176.5 -51q147 0 262 79.5t143 194.5q20 68 144 711q14 72 14 120q0 63 -25 101l23 35q35 25 104 24q59 0 86 -22 q-106 -446 -192 -908q-39 -205 -202 -339t-400 -134q-197 0 -302.5 74t-105.5 256zM496 1599q0 45 30.5 79t71.5 34t71.5 -33.5t30.5 -79.5q0 -47 -30.5 -79.5t-71.5 -32.5t-71.5 32.5t-30.5 79.5zM975 1599q0 45 30.5 79t71.5 34t72 -33.5t31 -79.5q0 -47 -31 -79.5 t-72 -32.5t-71.5 32.5t-30.5 79.5z" />
<glyph unicode="&#xdd;" horiz-adv-x="890" d="M572 1532q68 20 123 70.5t84.5 98.5t71.5 86t87 38h123l-106 -140q-143 -186 -314 -186q-23 0 -46 12.5t-23 20.5zM61 1313l21 35q66 29 141 28q63 0 94 -37q25 -117 85.5 -309t95.5 -276l59 80l225 301q46 66 47 122q0 29 -12 56l21 35q68 29 118 28q49 0 101 -28 q-8 -37 -64.5 -130.5t-105.5 -150.5l-324 -405q-33 -158 -59 -310q-47 -246 -53 -352h-220l7 33l69 350l43 233q-14 16 -31 64l-116 344l-38 104l-27 80q-7 23 -19.5 48.5t-25 37t-32.5 19.5z" />
<glyph unicode="&#xdf;" horiz-adv-x="1171" d="M61 0h199q0 63 4 86q131 844 195 1081q31 119 109.5 189.5t181.5 70.5q170 0 170 -127q0 -29 -5 -43q-16 -86 -74.5 -174t-115.5 -147t-104.5 -139t-47.5 -156q0 -66 44.5 -122t97.5 -90t97 -79t44 -90q0 -74 -61.5 -124t-145.5 -50q-133 0 -192.5 42t-59.5 93 q-37 -45 -37 -96q0 -70 77 -111t179 -41q170 0 299 106.5t129 278.5q0 78 -47 141.5t-103 98.5t-103.5 77t-47.5 81q0 47 56.5 119.5t124 140t124 161t56.5 179.5q0 92 -79 140t-198 48q-127 0 -228 -40t-161.5 -107.5t-96.5 -133t-54 -137.5q-31 -115 -129 -122l-21 -62 q68 -31 68 -135q0 -47 -10 -94l-125 -662q-5 -16 -9 -51z" />
<glyph unicode="&#xe0;" horiz-adv-x="1038" d="M82 299q0 299 164 521t397 222q41 0 154.5 -19t158.5 -22l-51 -256l-78 -397q-14 -111 -14 -153q0 -96 78 -97l49 8l14 -36q-119 -96 -215 -97q-55 0 -83.5 31t-31.5 79t4 91t19 80q-66 -121 -165 -201t-187 -80t-150.5 85t-62.5 241zM270 322q0 -102 37 -151.5t92 -49.5 q92 0 244 192q98 416 109 594q-88 25 -160 25q-125 0 -223.5 -185t-98.5 -425zM432 1483l53 -140q72 -186 236 -186q23 0 51.5 13.5t30.5 19.5q-59 20 -95 70.5t-47.5 98.5t-38 86t-71.5 38h-119z" />
<glyph unicode="&#xe1;" horiz-adv-x="1038" d="M82 299q0 299 164 521t397 222q41 0 154.5 -19t158.5 -22l-51 -256l-78 -397q-14 -111 -14 -153q0 -96 78 -97l49 8l14 -36q-119 -96 -215 -97q-55 0 -83.5 31t-31.5 79t4 91t19 80q-66 -121 -165 -201t-187 -80t-150.5 85t-62.5 241zM270 322q0 -102 37 -151.5t92 -49.5 q92 0 244 192q98 416 109 594q-88 25 -160 25q-125 0 -223.5 -185t-98.5 -425zM551 1190q68 20 123 70.5t84.5 98.5t71.5 86t88 38h122l-106 -140q-143 -186 -313 -186q-23 0 -46.5 12.5t-23.5 20.5z" />
<glyph unicode="&#xe2;" horiz-adv-x="1038" d="M82 299q0 299 164 521t397 222q41 0 154.5 -19t158.5 -22l-51 -256l-78 -397q-14 -111 -14 -153q0 -96 78 -97l49 8l14 -36q-119 -96 -215 -97q-55 0 -83.5 31t-31.5 79t4 91t19 80q-66 -121 -165 -201t-187 -80t-150.5 85t-62.5 241zM270 322q0 -102 37 -151.5t92 -49.5 q92 0 244 192q98 416 109 594q-88 25 -160 25q-125 0 -223.5 -185t-98.5 -425zM338 1190q53 12 127 85l136.5 140.5t90.5 67.5h33h16q29 0 58.5 -42t52 -94.5t57.5 -100.5t72 -56q-2 -6 -30.5 -19.5t-51.5 -13.5q-90 0 -142 65.5t-59 168.5q-98 -233 -290 -234 q-23 0 -46.5 12.5t-23.5 20.5z" />
<glyph unicode="&#xe3;" horiz-adv-x="1038" d="M82 299q0 299 164 521t397 222q41 0 154.5 -19t158.5 -22l-51 -256l-78 -397q-14 -111 -14 -153q0 -96 78 -97l49 8l14 -36q-119 -96 -215 -97q-55 0 -83.5 31t-31.5 79t4 91t19 80q-66 -121 -165 -201t-187 -80t-150.5 85t-62.5 241zM270 322q0 -102 37 -151.5t92 -49.5 q92 0 244 192q98 416 109 594q-88 25 -160 25q-125 0 -223.5 -185t-98.5 -425zM315 1241q82 51 129 51q35 0 131.5 -34.5t176.5 -34.5q92 0 168.5 41t109.5 122q-96 -55 -153 -55q-41 0 -141.5 35t-157.5 35q-86 0 -159 -40t-104 -120z" />
<glyph unicode="&#xe4;" horiz-adv-x="1038" d="M82 299q0 299 164 521t397 222q41 0 154.5 -19t158.5 -22l-51 -256l-78 -397q-14 -111 -14 -153q0 -96 78 -97l49 8l14 -36q-119 -96 -215 -97q-55 0 -83.5 31t-31.5 79t4 91t19 80q-66 -121 -165 -201t-187 -80t-150.5 85t-62.5 241zM270 322q0 -102 37 -151.5t92 -49.5 q92 0 244 192q98 416 109 594q-88 25 -160 25q-125 0 -223.5 -185t-98.5 -425zM383 1313q0 45 30.5 78.5t71.5 33.5t72 -33.5t31 -78.5q0 -47 -31 -80t-72 -33t-71.5 33t-30.5 80zM760 1313q0 45 30.5 78.5t71.5 33.5t72 -33.5t31 -78.5q0 -47 -31 -80t-72 -33t-71.5 33 t-30.5 80z" />
<glyph unicode="&#xe5;" horiz-adv-x="1038" d="M82 299q0 299 164 521t397 222q41 0 154.5 -19t158.5 -22l-51 -256l-78 -397q-14 -111 -14 -153q0 -96 78 -97l49 8l14 -36q-119 -96 -215 -97q-55 0 -83.5 31t-31.5 79t4 91t19 80q-66 -121 -165 -201t-187 -80t-150.5 85t-62.5 241zM270 322q0 -102 37 -151.5t92 -49.5 q92 0 244 192q98 416 109 594q-88 25 -160 25q-125 0 -223.5 -185t-98.5 -425zM514 1319q0 -76 50 -117t120 -41q80 0 136.5 52.5t56.5 134.5q0 61 -37 104t-92 53q-14 4 -43 4q-82 0 -136.5 -51t-54.5 -139zM598 1329q0 66 28.5 96.5t65.5 30.5q43 0 71 -29.5t28 -83.5 q0 -66 -29 -97.5t-68 -31.5q-2 0 -8 1.5t-10 1.5q-33 6 -55.5 36.5t-22.5 75.5z" />
<glyph unicode="&#xe6;" horiz-adv-x="1521" d="M82 299q0 299 164 521t397 222q29 0 138.5 -17t164.5 -17q39 0 113 15t129 15q133 0 200.5 -57t67.5 -156q0 -160 -165 -256t-392 -96h-45v-33q0 -78 19.5 -143.5t71.5 -116.5t132 -51q86 0 176 48t160 132q0 -133 -130 -234.5t-294 -101.5q-117 0 -202 77t-111 214 q-72 -115 -182.5 -203t-198.5 -88t-150.5 85t-62.5 241zM270 322q0 -102 37 -151.5t92 -49.5q90 0 269 219v29q0 158 60 298t161 236h-4q-43 0 -129 16.5t-150 16.5q-127 0 -231.5 -188t-104.5 -426zM868 547q78 6 136.5 18.5t123 40t99.5 80.5t35 129q0 109 -103 109 q-104 0 -186 -120t-105 -257z" />
<glyph unicode="&#xe7;" horiz-adv-x="944" d="M82 373q0 254 156.5 459.5t373.5 205.5q123 0 212 -42t89 -119q0 -66 -58 -103t-120 4q0 145 -147 146q-129 0 -221.5 -161t-92.5 -343q0 -127 59.5 -209t176.5 -82q174 0 326 180q4 -117 -100.5 -211t-250.5 -118q-18 -33 -18 -58q0 -18 42 -30.5t84 -39t42 -77.5 q0 -98 -90 -177t-191 -79q-66 0 -103.5 22.5t-37.5 63.5q0 35 18 63q35 -43 138 -43q51 0 95 29t44 65q0 23 -23.5 39.5t-53.5 26.5t-53.5 30.5t-23.5 49.5q0 63 72 108h-14q-139 0 -234.5 109t-95.5 291z" />
<glyph unicode="&#xe8;" horiz-adv-x="940" d="M84 379q6 270 167 464.5t353 194.5q135 0 202.5 -58t65.5 -159q-2 -158 -166.5 -253t-390.5 -95h-41q-4 -33 -4 -53q-2 -113 56.5 -202t167.5 -89q86 0 176 48t159 132q6 -131 -128 -233.5t-295 -102.5q-141 0 -232.5 110t-89.5 296zM285 547q78 6 136 18.5t121.5 40 t98.5 80.5t37 129q2 43 -21.5 76t-81.5 33q-104 0 -185.5 -120t-104.5 -257zM408 1483l53 -140q72 -186 235 -186q23 0 51.5 13.5t30.5 19.5q-59 20 -95 70.5t-47 98.5t-38 86t-72 38h-118z" />
<glyph unicode="&#xe9;" horiz-adv-x="940" d="M84 379q6 270 167 464.5t353 194.5q135 0 202.5 -58t65.5 -159q-2 -158 -166.5 -253t-390.5 -95h-41q-4 -33 -4 -53q-2 -113 56.5 -202t167.5 -89q86 0 176 48t159 132q6 -131 -128 -233.5t-295 -102.5q-141 0 -232.5 110t-89.5 296zM285 547q78 6 136 18.5t121.5 40 t98.5 80.5t37 129q2 43 -21.5 76t-81.5 33q-104 0 -185.5 -120t-104.5 -257zM524 1190q68 20 123 70.5t85 98.5t72 86t87 38h123l-107 -140q-143 -186 -313 -186q-23 0 -46.5 12.5t-23.5 20.5z" />
<glyph unicode="&#xea;" horiz-adv-x="940" d="M84 379q6 270 167 464.5t353 194.5q135 0 202.5 -58t65.5 -159q-2 -158 -166.5 -253t-390.5 -95h-41q-4 -33 -4 -53q-2 -113 56.5 -202t167.5 -89q86 0 176 48t159 132q6 -131 -128 -233.5t-295 -102.5q-141 0 -232.5 110t-89.5 296zM285 547q78 6 136 18.5t121.5 40 t98.5 80.5t37 129q2 43 -21.5 76t-81.5 33q-104 0 -185.5 -120t-104.5 -257zM315 1190q53 12 127 85l136.5 140.5t91.5 67.5h32h17q29 0 58.5 -42t52 -94.5t57.5 -100.5t71 -56q-2 -6 -30.5 -19.5t-50.5 -13.5q-90 0 -142.5 65.5t-58.5 168.5q-98 -233 -291 -234 q-23 0 -46.5 12.5t-23.5 20.5z" />
<glyph unicode="&#xeb;" horiz-adv-x="940" d="M84 379q6 270 167 464.5t353 194.5q135 0 202.5 -58t65.5 -159q-2 -158 -166.5 -253t-390.5 -95h-41q-4 -33 -4 -53q-2 -113 56.5 -202t167.5 -89q86 0 176 48t159 132q6 -131 -128 -233.5t-295 -102.5q-141 0 -232.5 110t-89.5 296zM285 547q78 6 136 18.5t121.5 40 t98.5 80.5t37 129q2 43 -21.5 76t-81.5 33q-104 0 -185.5 -120t-104.5 -257zM352 1313q0 45 31 78.5t72 33.5t71.5 -33.5t30.5 -78.5q0 -47 -30.5 -80t-71.5 -33t-72 33t-31 80zM729 1313q0 45 31 78.5t71.5 33.5t71.5 -33.5t31 -78.5q0 -47 -31 -80t-71.5 -33t-71.5 33 t-31 80z" />
<glyph unicode="&#xec;" horiz-adv-x="542" d="M92 0l2 8q150 784 150 817q2 74 -56 74q-10 0 -16 -2l-18 33q35 41 96 72.5t121 31.5q80 0 75 -96q0 -27 -22.5 -119t-22.5 -94q-8 -37 -22 -128l-37 -226l-37 -217q-12 -63 -12 -117q0 -25 -2 -37h-199zM100 1483l54 -140q72 -186 235 -186q23 0 51.5 13.5t30.5 19.5 q-59 20 -95 70.5t-47.5 98.5t-38 86t-71.5 38h-119z" />
<glyph unicode="&#xed;" horiz-adv-x="542" d="M92 0l2 8q150 784 150 817q2 74 -56 74q-10 0 -16 -2l-18 33q35 41 96 72.5t121 31.5q80 0 75 -96q0 -27 -22.5 -119t-22.5 -94q-8 -37 -22 -128l-37 -226l-37 -217q-12 -63 -12 -117q0 -25 -2 -37h-199zM225 1190q68 20 123 70.5t85 98.5t72 86t87 38h123l-107 -140 q-143 -186 -313 -186q-23 0 -46.5 12.5t-23.5 20.5z" />
<glyph unicode="&#xee;" horiz-adv-x="542" d="M92 0l2 8q150 784 150 817q2 74 -56 74q-10 0 -16 -2l-18 33q35 41 96 72.5t121 31.5q80 0 75 -96q0 -27 -22.5 -119t-22.5 -94q-8 -37 -22 -128l-37 -226l-37 -217q-12 -63 -12 -117q0 -25 -2 -37h-199zM92 1190q53 12 127 85l136.5 140.5t90.5 67.5h33h17 q29 0 58.5 -42t52 -94.5t57 -100.5t71.5 -56q-2 -6 -30.5 -19.5t-51.5 -13.5q-90 0 -142 65.5t-58 168.5q-98 -233 -291 -234q-23 0 -46.5 12.5t-23.5 20.5z" />
<glyph unicode="&#xef;" horiz-adv-x="542" d="M92 0l2 8q150 784 150 817q2 74 -56 74q-10 0 -16 -2l-18 33q35 41 96 72.5t121 31.5q80 0 75 -96q0 -27 -22.5 -119t-22.5 -94q-8 -37 -22 -128l-37 -226l-37 -217q-12 -63 -12 -117q0 -25 -2 -37h-199zM92 1313q0 45 31 78.5t72 33.5t71.5 -33.5t30.5 -78.5 q0 -47 -30.5 -80t-71.5 -33t-72 33t-31 80zM469 1313q0 45 30.5 78.5t71.5 33.5t72 -33.5t31 -78.5q0 -47 -31 -80t-72 -33t-71.5 33t-30.5 80z" />
<glyph unicode="&#xf1;" horiz-adv-x="1107" d="M82 0v8l147 770q8 43 -5 82t-46 39q-10 0 -16 -2l-19 33q33 41 95.5 72.5t121.5 31.5q76 0 76 -96q0 -57 -33 -168q70 98 189 185t237 87q76 0 129.5 -58t45.5 -163q-2 -23 -67 -364.5t-65 -456.5h-194q0 12 14 98q90 465 107 598q10 94 -8.5 139.5t-77.5 45.5 q-84 0 -176.5 -60.5t-149.5 -138.5l-94 -528q-10 -63 -12 -117v-37h-199zM362 1241q82 51 130 51q35 0 131 -34.5t176 -34.5q92 0 168.5 41t109.5 122q-96 -55 -153 -55q-41 0 -141.5 35t-157.5 35q-86 0 -159 -40t-104 -120z" />
<glyph unicode="&#xf2;" horiz-adv-x="1030" d="M84 369q0 -68 10 -128.5t40 -125t95.5 -103.5t159.5 -39q233 0 393 203t164 471q2 184 -82 287.5t-223 103.5q-229 0 -391 -191t-166 -478zM281 403q0 57 13 135t40.5 173.5t85 159t135.5 63.5q94 0 145.5 -89t47.5 -239q-2 -223 -90.5 -377.5t-200.5 -154.5 q-88 0 -134 89.5t-42 239.5zM410 1483l53 -140q72 -186 235 -186q23 0 51.5 13.5t30.5 19.5q-59 20 -95 70.5t-47 98.5t-38 86t-72 38h-118z" />
<glyph unicode="&#xf3;" horiz-adv-x="1030" d="M84 369q0 -68 10 -128.5t40 -125t95.5 -103.5t159.5 -39q233 0 393 203t164 471q2 184 -82 287.5t-223 103.5q-229 0 -391 -191t-166 -478zM281 403q0 57 13 135t40.5 173.5t85 159t135.5 63.5q94 0 145.5 -89t47.5 -239q-2 -223 -90.5 -377.5t-200.5 -154.5 q-88 0 -134 89.5t-42 239.5zM522 1190q68 20 123 70.5t85 98.5t72 86t87 38h123l-107 -140q-143 -186 -313 -186q-23 0 -46.5 12.5t-23.5 20.5z" />
<glyph unicode="&#xf4;" horiz-adv-x="1030" d="M84 369q0 -68 10 -128.5t40 -125t95.5 -103.5t159.5 -39q233 0 393 203t164 471q2 184 -82 287.5t-223 103.5q-229 0 -391 -191t-166 -478zM281 403q0 57 13 135t40.5 173.5t85 159t135.5 63.5q94 0 145.5 -89t47.5 -239q-2 -223 -90.5 -377.5t-200.5 -154.5 q-88 0 -134 89.5t-42 239.5zM342 1190q53 12 127 85l136.5 140.5t90.5 67.5h33h16q29 0 59 -42t52.5 -94.5t57 -100.5t71.5 -56q-2 -6 -30.5 -19.5t-51.5 -13.5q-90 0 -142 65.5t-59 168.5q-98 -233 -290 -234q-23 0 -46.5 12.5t-23.5 20.5z" />
<glyph unicode="&#xf5;" horiz-adv-x="1030" d="M84 369q0 -68 10 -128.5t40 -125t95.5 -103.5t159.5 -39q233 0 393 203t164 471q2 184 -82 287.5t-223 103.5q-229 0 -391 -191t-166 -478zM281 403q0 57 13 135t40.5 173.5t85 159t135.5 63.5q94 0 145.5 -89t47.5 -239q-2 -223 -90.5 -377.5t-200.5 -154.5 q-88 0 -134 89.5t-42 239.5zM307 1241q82 51 129 51q35 0 131.5 -34.5t175.5 -34.5q92 0 169 41t110 122q-96 -55 -154 -55q-41 0 -141 35t-158 35q-86 0 -158.5 -40t-103.5 -120z" />
<glyph unicode="&#xf6;" horiz-adv-x="1030" d="M84 369q0 -68 10 -128.5t40 -125t95.5 -103.5t159.5 -39q233 0 393 203t164 471q2 184 -82 287.5t-223 103.5q-229 0 -391 -191t-166 -478zM281 403q0 57 13 135t40.5 173.5t85 159t135.5 63.5q94 0 145.5 -89t47.5 -239q-2 -223 -90.5 -377.5t-200.5 -154.5 q-88 0 -134 89.5t-42 239.5zM360 1313q0 45 31 78.5t72 33.5t71.5 -33.5t30.5 -78.5q0 -47 -30.5 -80t-71.5 -33t-72 33t-31 80zM737 1313q0 45 31 78.5t72 33.5t71.5 -33.5t30.5 -78.5q0 -47 -30.5 -80t-71.5 -33t-72 33t-31 80z" />
<glyph unicode="&#xf7;" horiz-adv-x="1001" d="M180 461v131q0 -8 344 -8q262 0 285 16q-6 -43 -30.5 -71.5t-45 -42t-74 -19.5t-69.5 -6h-84q-27 0 -152 1t-137 1q-29 0 -37 -2zM365 229q0 47 33.5 81t82.5 34q47 0 81 -34t34 -81q0 -49 -34 -82.5t-81 -33.5q-49 0 -82.5 33.5t-33.5 82.5zM365 819q0 47 33.5 81 t82.5 34q47 0 81 -34t34 -81q0 -49 -34 -83t-81 -34q-49 0 -82.5 34t-33.5 83z" />
<glyph unicode="&#xf8;" horiz-adv-x="1030" d="M0 70l63 -68l87 88q78 -117 239 -117q233 0 393 203t164 471q0 127 -35 205q88 78 101 104q4 10 4 21q0 31 -64 67l-45 -52l-47 -54q-82 100 -219 100q-229 0 -391 -191.5t-166 -477.5q-4 -104 25 -193q-33 -34 -109 -106zM281 346v57q0 57 13 135t40.5 173.5t85 159 t135.5 63.5q117 0 166 -139zM295 244l448 450q4 -27 5 -88q-2 -223 -90.5 -377.5t-200.5 -154.5q-121 0 -162 170z" />
<glyph unicode="&#xf9;" horiz-adv-x="1128" d="M119 166q0 39 47 275.5t59 336.5q2 8 2 27q0 94 -53 94q-10 0 -16 -2l-19 33q33 41 95.5 72.5t121.5 31.5q76 0 76 -96q0 -55 -26 -168q-14 -72 -44 -194.5t-43.5 -195.5t-13.5 -124q0 -127 105 -127q84 0 176 60.5t149 138.5q4 25 34 186.5t48 271.5v19q0 94 -51 94 q-10 0 -16 -2l-19 33q33 41 95.5 72.5t121.5 31.5q76 0 76 -96q0 -70 -29 -168l-100 -539q-4 -33 -4 -45q0 -88 80 -88q25 0 45 8l14 -36q-43 -37 -112.5 -67t-114.5 -30q-113 0 -113 121q0 68 29 146q-70 -98 -188.5 -185.5t-237.5 -87.5q-72 0 -123 52.5t-51 146.5z M389 1483l53 -140q72 -186 236 -186q23 0 51.5 13.5t30.5 19.5q-59 20 -95 70.5t-47.5 98.5t-38 86t-71.5 38h-119z" />
<glyph unicode="&#xfa;" horiz-adv-x="1128" d="M119 166q0 39 47 275.5t59 336.5q2 8 2 27q0 94 -53 94q-10 0 -16 -2l-19 33q33 41 95.5 72.5t121.5 31.5q76 0 76 -96q0 -55 -26 -168q-14 -72 -44 -194.5t-43.5 -195.5t-13.5 -124q0 -127 105 -127q84 0 176 60.5t149 138.5q4 25 34 186.5t48 271.5v19q0 94 -51 94 q-10 0 -16 -2l-19 33q33 41 95.5 72.5t121.5 31.5q76 0 76 -96q0 -70 -29 -168l-100 -539q-4 -33 -4 -45q0 -88 80 -88q25 0 45 8l14 -36q-43 -37 -112.5 -67t-114.5 -30q-113 0 -113 121q0 68 29 146q-70 -98 -188.5 -185.5t-237.5 -87.5q-72 0 -123 52.5t-51 146.5z M543 1190q68 20 123 70.5t84.5 98.5t71.5 86t87 38h123l-106 -140q-143 -186 -314 -186q-23 0 -46 12.5t-23 20.5z" />
<glyph unicode="&#xfb;" horiz-adv-x="1128" d="M119 166q0 39 47 275.5t59 336.5q2 8 2 27q0 94 -53 94q-10 0 -16 -2l-19 33q33 41 95.5 72.5t121.5 31.5q76 0 76 -96q0 -55 -26 -168q-14 -72 -44 -194.5t-43.5 -195.5t-13.5 -124q0 -127 105 -127q84 0 176 60.5t149 138.5q4 25 34 186.5t48 271.5v19q0 94 -51 94 q-10 0 -16 -2l-19 33q33 41 95.5 72.5t121.5 31.5q76 0 76 -96q0 -70 -29 -168l-100 -539q-4 -33 -4 -45q0 -88 80 -88q25 0 45 8l14 -36q-43 -37 -112.5 -67t-114.5 -30q-113 0 -113 121q0 68 29 146q-70 -98 -188.5 -185.5t-237.5 -87.5q-72 0 -123 52.5t-51 146.5z M326 1190q53 12 126.5 85l136 140.5t91.5 67.5h33h16q29 0 58.5 -42t52 -94.5t57.5 -100.5t72 -56q-2 -6 -31 -19.5t-51 -13.5q-90 0 -142.5 65.5t-58.5 168.5q-98 -233 -291 -234q-23 0 -46 12.5t-23 20.5z" />
<glyph unicode="&#xfc;" horiz-adv-x="1128" d="M119 166q0 39 47 275.5t59 336.5q2 8 2 27q0 94 -53 94q-10 0 -16 -2l-19 33q33 41 95.5 72.5t121.5 31.5q76 0 76 -96q0 -55 -26 -168q-14 -72 -44 -194.5t-43.5 -195.5t-13.5 -124q0 -127 105 -127q84 0 176 60.5t149 138.5q4 25 34 186.5t48 271.5v19q0 94 -51 94 q-10 0 -16 -2l-19 33q33 41 95.5 72.5t121.5 31.5q76 0 76 -96q0 -70 -29 -168l-100 -539q-4 -33 -4 -45q0 -88 80 -88q25 0 45 8l14 -36q-43 -37 -112.5 -67t-114.5 -30q-113 0 -113 121q0 68 29 146q-70 -98 -188.5 -185.5t-237.5 -87.5q-72 0 -123 52.5t-51 146.5z M383 1313q0 45 30.5 78.5t71.5 33.5t72 -33.5t31 -78.5q0 -47 -31 -80t-72 -33t-71.5 33t-30.5 80zM760 1313q0 45 30.5 78.5t71.5 33.5t72 -33.5t31 -78.5q0 -47 -31 -80t-72 -33t-71.5 33t-30.5 80z" />
<glyph unicode="&#xfd;" horiz-adv-x="921" d="M226 1194q68 20 123 70.5t84.5 98.5t71.5 86t87 38h123l-106 -140q-143 -186 -314 -186q-23 0 -46 12.5t-23 20.5zM-240 -418q0 45 15 88q4 -25 43 -40t84 -15q182 0 432 358q-18 8 -29.5 19.5t-18.5 31t-10.5 28.5t-5.5 34l-4 25l-86 587q-25 203 -106 203l-13 -2 l-20 35q41 41 98.5 70.5t104.5 29.5q51 0 72.5 -27.5t21.5 -97.5q-2 -72 82 -600q6 -55 45 -141q311 498 311 674q0 49 -22.5 89t-67.5 50q27 45 102 45q123 0 123 -129q0 -158 -161 -442q-94 -164 -189.5 -312.5t-217.5 -318.5t-234.5 -271.5t-192.5 -101.5q-72 0 -114 36 t-42 95z" />
<glyph unicode="&#xff;" horiz-adv-x="921" d="M-240 -418q0 45 15 88q4 -25 43 -40t84 -15q182 0 432 358q-18 8 -29.5 19.5t-18.5 31t-10.5 28.5t-5.5 34l-4 25l-86 587q-25 203 -106 203l-13 -2l-20 35q41 41 98.5 70.5t104.5 29.5q51 0 72.5 -27.5t21.5 -97.5q-2 -72 82 -600q6 -55 45 -141q311 498 311 674 q0 49 -22.5 89t-67.5 50q27 45 102 45q123 0 123 -129q0 -158 -161 -442q-94 -164 -189.5 -312.5t-217.5 -318.5t-234.5 -271.5t-192.5 -101.5q-72 0 -114 36t-42 95zM272 1313q0 45 31 78.5t72 33.5t71.5 -33.5t30.5 -78.5q0 -47 -30.5 -80t-71.5 -33t-72 33t-31 80z M649 1313q0 45 31 78.5t72 33.5t71.5 -33.5t30.5 -78.5q0 -47 -30.5 -80t-71.5 -33t-72 33t-31 80z" />
<glyph unicode="&#x152;" horiz-adv-x="1683" d="M98 516q0 358 219.5 597t524.5 239h442l346 6q27 -41 15.5 -124t-33.5 -104h-39q0 47 -53.5 79t-135.5 34l-170 6q-23 -133 -43 -225l-61 -279h311q27 0 47.5 6.5t26.5 14.5l6 6q0 -16 -4 -41q-8 -41 -28.5 -65.5t-55.5 -33.5t-56.5 -11.5t-60.5 -2.5q-158 0 -211 -2 q-68 -350 -84 -475q-2 -6 0 -12h379q27 0 46.5 7t25.5 14l6 6q2 -16 -4 -41q-8 -41 -29.5 -66.5t-55.5 -35t-56.5 -11.5t-59.5 -2h-657q-213 0 -355.5 137t-142.5 379zM326 578q0 -209 105.5 -339t275.5 -130h86l6 30l178 951q18 106 12 161h-192q-166 0 -318.5 -197 t-152.5 -476z" />
<glyph unicode="&#x153;" horiz-adv-x="1572" d="M84 369q4 287 166 478t391 191q150 0 233 -116q23 -31 27 -68q12 25 39 51q139 133 297 133q135 0 202.5 -58t65.5 -159q-2 -158 -166.5 -253t-390.5 -95h-41q-4 -33 -4 -53q-2 -113 56.5 -202t166.5 -89q86 0 176.5 48t159.5 132q6 -131 -124 -233.5t-279 -102.5 q-90 0 -176 54.5t-117 136.5q-10 -23 -47 -60q-143 -131 -330 -131q-94 0 -159.5 39t-95.5 103.5t-40 125t-10 128.5zM281 403q-4 -150 42 -239.5t134 -89.5q113 0 200.5 154.5t90.5 377.5q4 150 -47.5 239t-145.5 89q-78 0 -135.5 -63.5t-85 -159t-40.5 -173.5t-13 -135z M918 547q78 6 136 18.5t121.5 40t98.5 80.5t37 129q2 43 -21.5 76t-81.5 33q-104 0 -185.5 -120t-104.5 -257z" />
<glyph unicode="&#x178;" horiz-adv-x="1003" d="M51 1313l21 35q63 29 141 28q63 0 94 -37q25 -117 85.5 -309t94.5 -276l60 80l225 301q70 98 35 178l20 35q68 29 119 28q49 0 101 -28q-8 -37 -64.5 -130.5t-105.5 -150.5l-324 -405q-33 -158 -59 -310q-47 -246 -54 -352h-219l6 33l70 350l43 233q-14 16 -31 64 l-116 344l-38 104l-27 80q-7 23 -19.5 48.5t-25 37t-32.5 19.5zM254 1599q0 45 30.5 79t71.5 34t72 -33.5t31 -79.5q0 -47 -31 -79.5t-72 -32.5t-71.5 32.5t-30.5 79.5zM733 1599q0 45 31 79t72 34t71.5 -33.5t30.5 -79.5q0 -47 -30.5 -79.5t-71.5 -32.5t-72 32.5t-31 79.5z " />
<glyph unicode="&#x2c6;" horiz-adv-x="823" d="M61 1190q53 12 127 85l136.5 140.5t91.5 67.5h33h16q29 0 58.5 -42t52 -94.5t57.5 -100.5t72 -56q-2 -6 -31 -19.5t-51 -13.5q-90 0 -142.5 65.5t-58.5 168.5q-98 -233 -291 -234q-23 0 -46.5 12.5t-23.5 20.5z" />
<glyph unicode="&#x2dc;" horiz-adv-x="778" d="M37 1241q82 51 129 51q35 0 131 -34.5t176 -34.5q92 0 169 41t110 122q-96 -55 -154 -55q-41 0 -141.5 35t-157.5 35q-86 0 -158.5 -40t-103.5 -120z" />
<glyph unicode="&#x2000;" horiz-adv-x="911" />
<glyph unicode="&#x2001;" horiz-adv-x="1824" />
<glyph unicode="&#x2002;" horiz-adv-x="911" />
<glyph unicode="&#x2003;" horiz-adv-x="1824" />
<glyph unicode="&#x2004;" horiz-adv-x="608" />
<glyph unicode="&#x2005;" horiz-adv-x="454" />
<glyph unicode="&#x2006;" horiz-adv-x="303" />
<glyph unicode="&#x2007;" horiz-adv-x="303" />
<glyph unicode="&#x2008;" horiz-adv-x="227" />
<glyph unicode="&#x2009;" horiz-adv-x="364" />
<glyph unicode="&#x200a;" horiz-adv-x="100" />
<glyph unicode="&#x2010;" horiz-adv-x="618" d="M45 436l27 131q0 -2 17 -4t57 -3t68 -1h77q262 0 287 16q-16 -49 -47 -79.5t-81.5 -43t-84 -14.5t-97.5 -2h-20q-27 0 -90.5 1t-75.5 1q-29 0 -37 -2z" />
<glyph unicode="&#x2011;" horiz-adv-x="618" d="M45 436l27 131q0 -2 17 -4t57 -3t68 -1h77q262 0 287 16q-16 -49 -47 -79.5t-81.5 -43t-84 -14.5t-97.5 -2h-20q-27 0 -90.5 1t-75.5 1q-29 0 -37 -2z" />
<glyph unicode="&#x2013;" horiz-adv-x="925" d="M45 438l27 131q0 -2 62.5 -4t169 -3t165.5 -1h129q262 0 287 17q-16 -49 -47 -80t-81 -43.5t-84 -14.5t-98 -2h-20q-27 0 -244 1t-229 1q-29 0 -37 -2z" />
<glyph unicode="&#x2014;" horiz-adv-x="1390" d="M39 438l27 131q0 -2 131 -4t341 -3t318 -1h207q262 0 287 17q-16 -49 -47 -80t-81.5 -43.5t-84 -14.5t-97.5 -2h-20q-27 0 -479.5 1t-464.5 1q-29 0 -37 -2z" />
<glyph unicode="&#x2018;" horiz-adv-x="428" d="M207 1149q0 82 85 187.5t245 195.5l26 -49q-104 -92 -144 -145.5t-40 -118.5q0 -57 47 -58q2 -8 2 -20q0 -49 -37 -77t-88 -28q-37 0 -66.5 32t-29.5 81z" />
<glyph unicode="&#x2019;" horiz-adv-x="428" d="M133 1079q104 92 144 145.5t40 118.5q0 57 -47 58q-2 8 -2 20q0 49 37 77t88 28q37 0 66.5 -32t29.5 -81q0 -82 -85 -187.5t-244 -195.5z" />
<glyph unicode="&#x201a;" horiz-adv-x="428" d="M-47 -254q104 92 144 145.5t40 118.5q0 57 -47 58q-2 8 -2 20q0 49 37 77t88 28q37 0 66.5 -32t29.5 -81q0 -82 -85 -187.5t-244 -195.5z" />
<glyph unicode="&#x201c;" horiz-adv-x="806" d="M207 1149q0 82 85 187.5t245 195.5l26 -49q-104 -92 -144 -145.5t-40 -118.5q0 -57 47 -58q2 -8 2 -20q0 -49 -37 -77t-88 -28q-37 0 -66.5 32t-29.5 81zM586 1149q0 82 85 187.5t244 195.5l27 -49q-104 -92 -144 -145.5t-40 -118.5q0 -57 47 -58q2 -8 2 -20 q0 -49 -37 -77t-88 -28q-37 0 -66.5 32t-29.5 81z" />
<glyph unicode="&#x201d;" horiz-adv-x="806" d="M133 1085q104 92 144 145.5t40 119.5q0 57 -47 57q-2 8 -2 20q0 49 37 77t88 28q37 0 66.5 -32t29.5 -81q0 -82 -85 -187.5t-244 -195.5zM512 1085q104 92 144 145.5t40 119.5q0 57 -47 57q-2 8 -2 20q0 49 37 77t88 28q37 0 66.5 -32t29.5 -81q0 -82 -85 -187.5 t-244 -195.5z" />
<glyph unicode="&#x201e;" horiz-adv-x="788" d="M-47 -254q104 92 144 145.5t40 118.5q0 57 -47 58q-2 8 -2 20q0 49 37 77t88 28q37 0 66.5 -32t29.5 -81q0 -82 -85 -187.5t-244 -195.5zM313 -254q104 92 144.5 145.5t40.5 118.5q0 57 -47 58q-2 8 -2 20q0 49 36.5 77t87.5 28q37 0 67 -32t30 -81q0 -82 -85 -187.5 t-245 -195.5z" />
<glyph unicode="&#x2022;" horiz-adv-x="868" d="M178 506q0 104 74 178t180 74q104 0 179 -74t75 -178q0 -106 -74.5 -180t-179.5 -74q-106 0 -180 74t-74 180z" />
<glyph unicode="&#x2026;" horiz-adv-x="1357" d="M158 84q0 45 32.5 77t77.5 32t77 -32t32 -77t-32 -78t-77 -33q-47 0 -78.5 32t-31.5 79zM578 84q0 45 32.5 77t77.5 32t77 -32t32 -77t-32 -78t-77 -33t-77.5 32t-32.5 79zM987 84q0 45 33 77t78 32t76.5 -32t31.5 -77t-31.5 -78t-76.5 -33t-78 32t-33 79z" />
<glyph unicode="&#x202f;" horiz-adv-x="364" />
<glyph unicode="&#x2039;" horiz-adv-x="755" d="M80 506l47 41l332 319q123 121 213 121q47 0 73 -31q-43 -14 -112 -84l-285 -303q-33 -35 -80 -63q37 -29 54 -64l170 -303q41 -70 79 -84q-45 -29 -88 -28q-90 0 -166 118l-204 320z" />
<glyph unicode="&#x203a;" horiz-adv-x="755" d="M-4 55q29 -29 74 -28q84 -4 211 118l331 320l50 41q-20 20 -35 41l-205 319q-76 121 -166 121q-45 0 -88 -31q16 -6 36.5 -27.5t33.5 -39.5l10 -17l170 -303q16 -35 55 -63q-49 -29 -82 -64l-285 -303q-69 -70 -110 -84z" />
<glyph unicode="&#x2044;" horiz-adv-x="1011" d="M125 0h-145l712 1027q184 273 189 323q39 31 82 30q61 0 61 -41q0 -18 -12.5 -44.5t-25.5 -46.5l-34 -47q-20 -28 -24 -32q-4 -6 -186 -263l-369 -530q-189 -274 -248 -376z" />
<glyph unicode="&#x205f;" horiz-adv-x="454" />
<glyph unicode="&#x20ac;" horiz-adv-x="1200" d="M-14 444l43 131q29 -4 106 -4q6 70 31 162h-94q-29 0 -37 -2l43 131q43 -6 131 -6q102 236 302 376t441 140q121 0 205 -44t84 -91q0 -57 -57 -98q-6 41 -79 75.5t-202 34.5q-174 0 -318.5 -112.5t-213.5 -282.5h385q260 0 284 16q-18 -49 -48.5 -79.5t-79 -43t-82 -14.5 t-97.5 -2h-20h-379q-20 -84 -23 -164h267q266 0 290 17q-18 -49 -49 -80t-81 -43t-85 -14.5t-98 -2.5h-20h-222q33 -354 392 -354q53 0 146 27.5t167 91.5q-25 -119 -129.5 -178.5t-270.5 -59.5q-231 0 -357 131t-130 344h-111q-26 0 -34 -2z" />
<glyph unicode="&#x2122;" horiz-adv-x="1642" d="M94 817q0 53 39 208t39 206q0 43 -57 61l16 62q72 0 154 108h82l-37 -108h129q27 0 46 7t25 13l7 6q2 -6 2 -16q0 -47 -38 -79t-95 -32q-8 0 -37 1t-43 1h-15l-30 -148l-29 -142q-14 -68 -14 -101q0 -68 69 -67q37 0 82 15t55 30q0 -66 -55 -120t-143 -54 q-152 -1 -152 149zM539 686l96 459q8 33 8 63q0 37 -12.5 57.5t-24.5 24.5l-12 2l8 41q74 37 135 37q66 0 66 -57q0 -14 -12 -60q121 121 260 121q61 0 98 -33.5t41 -87.5q117 121 260 121q63 0 100 -40t37 -97q0 -18 -2 -29l-16 -88q-4 -23 -26.5 -127t-34 -173.5 t-9.5 -114.5v-19h-149q8 57 20 122.5t28.5 144.5t24.5 124q12 57 13 92q0 80 -76 80q-96 0 -176 -65q-82 -410 -82 -498h-150q8 57 20.5 122.5t29 144.5t24.5 124q10 45 10 90q0 82 -73 82q-102 0 -193 -84l-24 -117q-22 -108 -37 -205.5t-15 -156.5h-155z" />
</font>
</defs>
</svg>
